<?xml version="1.0" encoding="UTF-8" standalone="no"?>
<svg
   version="1.0"
   viewBox="0 0 1058.614742 1200.860249"
   preserveAspectRatio="xMidYMid meet"
   id="svg8"
   sodipodi:docname="PCB Art - Silkscreen.svg"
   inkscape:version="1.2 (dc2aedaf03, 2022-05-15)"
   xmlns:inkscape="http://www.inkscape.org/namespaces/inkscape"
   xmlns:sodipodi="http://sodipodi.sourceforge.net/DTD/sodipodi-0.dtd"
   xmlns="http://www.w3.org/2000/svg"
   xmlns:svg="http://www.w3.org/2000/svg">
  <defs
     id="defs12" />
  <sodipodi:namedview
     id="namedview10"
     pagecolor="#000000"
     bordercolor="#000000"
     borderopacity="0.25"
     inkscape:showpageshadow="2"
     inkscape:pageopacity="0"
     inkscape:pagecheckerboard="0"
     inkscape:deskcolor="#d1d1d1"
     showgrid="false"
     inkscape:zoom="0.51640702"
     inkscape:cx="105.53691"
     inkscape:cy="548.01734"
     inkscape:window-width="1920"
     inkscape:window-height="1057"
     inkscape:window-x="-30080"
     inkscape:window-y="-32000"
     inkscape:window-maximized="0"
     inkscape:current-layer="layer1" />
  <metadata
     id="metadata2">
For more coloring pages, please visit ColoringAll.com
</metadata>
  <g
     inkscape:groupmode="layer"
     id="layer3"
     inkscape:label="Copper"
     style="display:none">
    <path
       id="rect8741"
       style="fill:#b28449;stroke-width:0.377953;stop-color:#000000"
       d="m 249.20931,349.16689 458.70943,-24.64708 c 0,0 220.45438,373.81397 35.60133,590.16051 L 205.39229,928.37314 C -46.55558,580.57554 186.22234,583.31409 249.20931,349.16689 Z"
       sodipodi:nodetypes="ccccc" />
  </g>
  <g
     inkscape:groupmode="layer"
     id="layer1"
     inkscape:label="Mask"
     style="display:inline" />
  <g
     inkscape:groupmode="layer"
     id="layer2"
     inkscape:label="SilkScreen"
     style="display:none;fill:#fffffd;fill-opacity:1">
    <g
       transform="matrix(0.1,0,0,-0.1,-0.024811,1200.8134)"
       fill="#000000"
       stroke="none"
       id="g6"
       style="fill:#ffffff;fill-opacity:1">
      <path
         d="m 4242,11999 c -75,-14 -122,-62 -108,-107 7,-21 34,-35 178,-91 59,-23 126,-56 150,-73 79,-57 191,-162 236,-223 93,-125 202,-398 202,-508 v -37 l -37,16 c -62,27 -144,44 -215,44 h -67 l -51,72 c -28,40 -53,84 -57,98 -10,41 -32,81 -91,160 -73,98 -220,250 -285,294 -60,41 -177,77 -330,102 -100,16 -110,16 -174,0 -91,-22 -219,-83 -249,-119 -33,-39 -22,-56 69,-108 150,-87 237,-152 324,-242 75,-79 99,-114 162,-232 l 75,-140 4,-96 4,-97 -69,-41 c -38,-23 -79,-41 -90,-41 -38,0 -53,-11 -53,-40 0,-35 -42,-93 -139,-191 -48,-48 -96,-87 -124,-99 -100,-44 -418,-53 -540,-14 l -59,18 -86,-29 c -121,-42 -120,-57 5,-49 54,3 202,1 330,-5 l 231,-10 89,39 c 88,40 143,50 143,28 0,-6 -18,-41 -39,-77 -52,-86 -98,-204 -111,-283 -5,-35 -10,-113 -10,-174 0,-80 -4,-116 -14,-130 -17,-22 -23,-12 -28,46 -2,19 -7,35 -12,35 -5,0 -23,-20 -40,-44 -44,-63 -60,-70 -88,-44 -32,31 -107,63 -146,63 -40,0 -98,-29 -134,-67 -43,-46 -104,-278 -92,-351 5,-30 0,-45 -22,-77 -33,-48 -55,-111 -84,-238 -20,-85 -25,-97 -44,-97 -55,-1 -214,-21 -238,-31 -47,-19 -63,-69 -60,-192 2,-87 -3,-128 -22,-205 -14,-53 -30,-133 -36,-177 -13,-89 -24,-113 -85,-200 -93,-131 -147,-254 -166,-375 -9,-58 -8,-79 5,-124 9,-30 20,-57 24,-60 4,-2 6,39 4,92 -4,96 -4,97 28,141 27,37 31,48 21,63 -18,29 -13,44 35,100 25,29 54,69 64,89 10,19 26,42 35,49 39,33 101,186 115,285 15,105 31,165 43,165 15,0 303,-87 320,-96 7,-4 35,-22 62,-40 82,-55 403,-127 784,-177 l 94,-12 -2,-141 c -2,-92 2,-149 10,-167 26,-58 155,-75 245,-33 83,38 134,121 142,228 4,57 2,69 -12,74 -9,4 -19,4 -21,2 -3,-3 -9,-39 -15,-80 -5,-42 -16,-94 -25,-116 l -16,-40 -67,5 c -146,9 -157,16 -167,110 -11,91 0,151 29,159 13,3 108,-4 212,-15 471,-51 576,-54 748,-22 139,26 195,27 202,4 21,-64 59,-124 89,-143 45,-28 120,-36 186,-20 43,11 65,24 117,75 l 63,62 -7,99 c -7,104 -17,144 -34,144 -6,0 -10,-48 -10,-129 0,-155 -1,-156 -104,-155 -118,1 -216,58 -216,126 0,23 1,22 23,-6 25,-31 47,-29 47,4 0,10 14,33 32,51 l 32,32 13,-32 c 17,-40 29,-39 43,3 12,38 114,123 275,231 115,77 295,261 295,301 0,28 -40,12 -122,-48 -47,-35 -115,-84 -150,-110 -35,-26 -98,-78 -139,-116 -98,-91 -175,-144 -262,-180 -89,-37 -360,-107 -381,-99 -9,4 -16,18 -16,32 0,28 -16,64 -54,119 -13,19 -33,61 -46,93 -13,32 -38,81 -56,109 -24,35 -36,70 -43,115 -5,35 -21,88 -36,117 -58,115 -77,190 -80,307 -1,61 -7,122 -13,136 -13,31 -58,69 -82,69 -37,0 -126,-137 -166,-256 -28,-83 -44,-264 -44,-489 0,-134 2,-144 35,-240 19,-55 35,-108 35,-117 0,-23 -32,-23 -177,-3 -59,8 -180,22 -268,30 -88,9 -163,19 -167,23 -5,5 -12,47 -17,96 -10,103 -22,120 -112,161 -57,25 -60,26 -94,9 -43,-20 -78,-60 -112,-128 -32,-64 -51,-86 -75,-86 -25,0 -23,18 12,92 16,34 30,72 30,83 0,58 -106,209 -155,221 -27,7 -102,-24 -127,-52 -9,-10 -36,-57 -60,-104 -37,-72 -48,-85 -71,-88 -38,-5 -43,18 -14,73 l 24,48 -31,114 -30,115 57,172 c 31,94 64,182 73,194 14,20 23,22 118,22 119,0 191,18 253,63 24,17 43,31 43,32 0,1 -53,0 -118,-3 -132,-5 -210,10 -258,52 l -28,23 23,31 c 22,32 44,39 129,44 50,3 57,20 13,31 -17,4 -46,11 -63,15 -28,6 -33,13 -36,41 -7,68 31,111 98,111 40,0 76,-15 137,-57 l 52,-36 118,7 c 255,15 330,45 462,181 110,114 121,143 121,316 0,189 -27,275 -103,325 -30,20 -47,24 -71,19 -76,-15 -96,-17 -96,-7 0,12 79,70 154,112 30,17 60,38 68,47 12,15 10,16 -14,9 -21,-5 -28,-3 -28,9 0,20 89,84 117,85 12,0 46,23 76,50 30,28 59,50 65,50 5,0 36,-12 67,-26 57,-27 60,-27 214,-21 99,4 191,14 251,27 148,33 180,36 180,16 0,-20 43,-22 58,-3 20,24 35,159 28,263 -7,120 -48,289 -104,429 -73,185 -88,209 -179,295 -89,84 -149,121 -281,169 -177,66 -176,76 6,68 225,-11 393,-58 573,-163 129,-75 243,-226 384,-509 75,-150 95,-231 95,-383 -1,-101 -14,-158 -47,-194 -31,-35 -112,-66 -207,-80 -88,-12 -90,-13 -46,-20 25,-3 78,-7 118,-7 l 73,-1 14,-34 c 19,-44 41,-51 101,-30 112,38 198,92 312,195 78,72 106,87 78,43 -10,-14 -16,-33 -14,-42 2,-12 37,15 123,96 65,61 123,119 128,127 15,28 -28,17 -84,-21 -30,-20 -79,-48 -109,-61 -30,-14 -85,-47 -122,-75 l -68,-50 -46,31 c -25,16 -66,33 -90,37 -40,6 -44,8 -37,28 4,11 8,98 8,191 0,195 -4,213 -90,386 -106,214 -242,383 -368,458 -67,39 -192,84 -298,105 -149,30 -469,45 -567,25 z m -446,-304 c 115,-20 231,-58 286,-95 23,-16 60,-52 81,-80 21,-27 56,-64 79,-80 70,-51 151,-160 193,-260 10,-25 36,-71 57,-102 21,-32 38,-64 38,-72 0,-17 -103,-71 -230,-121 -117,-46 -149,-62 -176,-87 -20,-18 -22,-18 -28,-1 -4,10 -12,53 -17,96 -12,94 -35,158 -82,230 -19,28 -42,77 -51,107 -19,65 -45,97 -146,180 -123,102 -192,148 -283,186 -48,20 -87,40 -87,45 0,4 39,20 88,34 48,15 92,28 97,30 23,8 98,4 181,-10 z m 875,-798 c -11,-12 -24,-18 -27,-14 -10,10 27,48 38,41 6,-4 1,-16 -11,-27 z m 139,-17 c -11,-20 -48,-45 -56,-37 -8,7 37,57 52,57 12,0 12,-4 4,-20 z m -390,-39 c 0,-5 -7,-12 -16,-15 -24,-9 -28,-7 -14,9 14,17 30,20 30,6 z m -52,-118 c -10,-2 -26,-2 -35,0 -10,3 -2,5 17,5 19,0 27,-2 18,-5 z m 162,-3 c 0,-5 -7,-7 -15,-4 -8,4 -15,8 -15,10 0,2 7,4 15,4 8,0 15,-4 15,-10 z m 949,-124 c 23,-24 23,-24 3,-35 -36,-19 -52,-13 -52,17 0,48 15,54 49,18 z m -1620,-324 c 42,-41 101,-213 101,-293 0,-78 -123,-264 -201,-304 -15,-8 -53,-15 -84,-15 -54,0 -57,1 -69,33 -8,17 -24,74 -37,126 -20,83 -21,100 -11,160 25,148 86,251 173,295 67,33 94,33 128,-2 z m 579,-1047 c 16,-20 22,-48 27,-123 9,-136 28,-226 70,-333 26,-65 39,-115 44,-171 6,-64 11,-81 28,-93 12,-8 33,-46 48,-84 14,-38 44,-99 66,-135 23,-38 39,-77 37,-89 -5,-37 -66,-59 -166,-61 -110,-1 -149,19 -185,97 -64,136 -81,278 -74,611 5,245 14,305 56,384 15,28 25,28 49,-3 z M 2699,8754 c 20,-4 37,-16 45,-33 20,-37 38,-139 34,-186 -4,-56 -31,-57 -117,-6 -37,23 -72,41 -79,41 -18,0 -29,30 -37,95 -3,33 -8,71 -11,84 -5,24 -5,24 64,18 38,-4 83,-10 101,-13 z m 449,-160 c 17,-20 42,-58 57,-85 l 26,-49 -25,-64 c -14,-36 -26,-74 -26,-85 0,-29 -18,-27 -103,14 -95,45 -122,73 -113,117 9,48 61,154 91,183 30,31 47,25 93,-31 z m 380,-160 c 55,-36 72,-64 72,-115 0,-72 -17,-78 -172,-57 l -90,12 6,39 c 4,21 18,61 31,87 41,81 73,88 153,34 z m 608,2854 c 19,-63 64,-139 64,-109 0,19 -53,131 -62,131 -5,0 -6,-10 -2,-22 z M 3827,9988 c -59,-53 -36,-118 43,-118 29,0 42,5 50,20 15,28 6,50 -34,89 l -33,32 z m 545,-1408 c 0,-14 2,-19 5,-12 2,6 2,18 0,25 -3,6 -5,1 -5,-13 z m 468,3103 c 1,-12 60,-88 60,-77 0,11 -48,84 -55,84 -3,0 -5,-3 -5,-7 z m 120,-195 c 0,-17 49,-76 50,-60 0,19 -29,72 -40,72 -6,0 -10,-6 -10,-12 z m 141,-314 c 0,-11 3,-14 6,-6 3,7 2,16 -1,19 -3,4 -6,-2 -5,-13 z m -2411,-62 c 0,-56 181,-146 255,-128 34,9 24,21 -27,34 -24,7 -81,34 -128,62 -47,27 -88,50 -92,50 -5,0 -8,-8 -8,-18 z m 207,-19 c -4,-3 -7,-10 -7,-15 0,-13 64,-38 97,-38 15,0 63,-11 106,-25 81,-26 133,-32 122,-15 -9,15 4,13 101,-20 112,-38 147,-37 89,3 -59,40 -212,87 -288,87 -34,0 -87,7 -117,15 -60,16 -93,19 -103,8 z m -397,-25 c 0,-13 49,-37 183,-90 46,-18 48,-18 45,-1 -4,21 -138,91 -192,100 -27,4 -36,2 -36,-9 z m 4263,-22 c -87,-32 -162,-80 -227,-144 -89,-88 -67,-94 55,-16 37,24 110,64 162,89 98,47 123,66 112,85 -9,15 -33,12 -102,-14 z m -3343,-2 c 0,-18 27,-48 77,-84 60,-43 86,-50 81,-23 -7,36 -158,139 -158,107 z m 3675,-30 c -40,-13 -56,-14 -86,-4 -30,10 -51,9 -113,-3 -81,-17 -127,-40 -188,-95 -73,-66 -36,-83 59,-27 61,36 182,85 210,85 9,0 -3,-15 -29,-34 -44,-34 -65,-63 -53,-74 3,-3 38,9 78,27 134,62 191,83 232,88 l 40,5 -47,-49 c -27,-27 -48,-54 -48,-61 0,-16 0,-16 60,8 28,11 64,20 81,20 46,0 120,21 116,33 -2,6 -22,17 -44,24 -23,8 -53,26 -68,41 -22,22 -37,27 -88,29 -36,2 -83,-4 -112,-13 z m -680,-8 c -93,-18 -178,-51 -244,-94 -71,-47 -171,-143 -171,-165 0,-23 22,-12 87,45 58,50 132,98 151,98 12,0 11,-4 -2,-25 -9,-13 -16,-31 -16,-39 0,-22 34,-7 113,46 70,49 125,74 178,82 19,4 44,13 55,20 45,34 -43,52 -151,32 z m -2785,-35 c 0,-13 167,-97 176,-88 12,12 -25,44 -82,71 -56,26 -94,33 -94,17 z m -1230,-26 c -10,-12 -9,-16 5,-21 17,-7 155,3 180,13 38,14 7,23 -79,23 -71,0 -97,-4 -106,-15 z m 480,-55 c 0,-12 72,-61 79,-54 7,7 -55,64 -69,64 -6,0 -10,-4 -10,-10 z m -438,-27 c -37,-18 -122,-90 -122,-104 0,-31 109,37 148,93 19,27 12,30 -26,11 z m 4880,-19 c -12,-8 -22,-22 -22,-31 0,-12 6,-14 33,-7 57,14 105,7 174,-26 l 68,-32 -34,-12 c -19,-7 -36,-17 -38,-22 -10,-29 171,-60 201,-35 9,8 28,10 50,5 76,-14 34,27 -94,91 -156,79 -286,105 -338,69 z m -4122,1 c 0,-4 18,-27 40,-53 22,-25 39,-47 37,-49 -2,-2 -28,8 -58,22 -55,25 -169,36 -169,15 0,-5 26,-17 58,-25 31,-9 102,-31 157,-49 128,-43 152,-48 159,-37 4,5 -11,20 -31,32 -21,12 -73,52 -115,87 -43,35 -78,61 -78,57 z m 670,-5 c 0,-12 59,-50 78,-50 25,0 11,27 -23,43 -41,20 -55,21 -55,7 z m -1178,-53 c 11,-31 163,-77 255,-77 35,0 63,4 63,10 0,6 -1,10 -3,10 -19,0 -233,43 -270,55 -36,11 -47,11 -45,2 z m 768,4 c 0,-17 67,-87 76,-78 4,4 -6,24 -22,44 -31,38 -54,52 -54,34 z m -1055,-65 c -58,-39 -111,-93 -102,-102 6,-6 69,39 147,106 47,41 17,38 -45,-4 z m 1296,8 c 18,-22 69,-47 69,-34 0,11 -58,50 -74,50 -5,0 -3,-7 5,-16 z m 2845,-69 c -58,-24 -114,-65 -88,-65 20,0 226,70 237,81 20,20 -91,8 -149,-16 z m 274,14 c -32,-13 -61,-39 -54,-50 2,-5 28,1 57,12 46,19 59,20 113,10 78,-14 276,-15 252,-1 -15,9 -274,41 -322,39 -11,0 -32,-5 -46,-10 z m -4308,-11 c 5,-15 57,-18 61,-3 1,6 -13,11 -32,13 -24,3 -32,0 -29,-10 z m 2514,-21 c 10,-13 28,-31 41,-41 22,-16 23,-16 23,2 0,23 -40,62 -64,62 -16,0 -16,-1 0,-23 z m 1277,-27 c -80,-40 -131,-80 -102,-80 19,0 159,67 182,87 18,17 22,33 8,33 -5,0 -44,-18 -88,-40 z m -2783,21 c 0,-13 26,-21 66,-21 35,0 46,13 18,24 -24,9 -84,7 -84,-3 z m -1108,-55 c -20,-19 -34,-37 -31,-40 9,-9 79,43 79,59 0,21 -6,19 -48,-19 z m 1964,15 c -4,-5 -2,-12 3,-15 5,-4 12,-2 15,3 4,5 2,12 -3,15 -5,4 -12,2 -15,-3 z m 2837,2 c 9,-2 25,-2 35,0 9,3 1,5 -18,5 -19,0 -27,-2 -17,-5 z m 394,0 c -10,-17 14,-54 40,-64 28,-10 160,-16 169,-6 7,7 -55,41 -110,60 -53,18 -92,22 -99,10 z m -1589,-32 c -77,-30 -133,-85 -121,-118 8,-20 21,-15 35,14 8,16 42,42 86,67 98,54 98,75 0,37 z m 1115,-48 c -41,-16 35,-73 97,-73 37,0 39,17 4,30 -15,6 -38,19 -52,30 -26,21 -29,22 -49,13 z m -3083,-22 c -8,-5 -36,-12 -62,-15 -47,-7 -78,-28 -59,-41 19,-11 171,38 171,56 0,11 -30,11 -50,0 z m 888,2 c -19,-5 -24,-18 -10,-27 5,-3 49,-10 98,-16 49,-6 100,-14 113,-17 17,-4 22,-2 19,8 -8,27 -171,65 -220,52 z m -2483,-23 c -13,-14 -15,-24 -8,-31 16,-16 43,1 43,27 0,29 -11,30 -35,4 z m 1807,-19 c 4,-13 18,-16 19,-4 0,4 -5,9 -11,12 -7,2 -11,-2 -8,-8 z m 363,-11 c -10,-30 5,-47 22,-25 7,11 13,25 13,32 0,21 -28,15 -35,-7 z m 3000,6 c -19,-14 -19,-15 -2,-34 19,-21 154,-87 202,-98 l 30,-7 -37,40 c -20,23 -42,51 -48,63 -22,42 -108,63 -145,36 z m -2405,-9 c 0,-14 42,-49 72,-60 31,-11 28,10 -5,35 -42,32 -67,41 -67,25 z m -2647,-67 c -44,-18 -20,-41 40,-39 18,0 40,4 50,8 16,6 17,9 5,19 -21,17 -69,23 -95,12 z m 2781,-1 c -10,-16 8,-29 49,-36 29,-4 37,-2 37,9 0,27 -72,49 -86,27 z m -394,-62 c -118,-50 -274,-177 -315,-257 -27,-53 -65,-218 -65,-284 0,-162 94,-352 202,-407 49,-25 176,-42 252,-34 77,8 196,40 245,65 49,24 132,116 160,174 49,104 61,222 40,386 -13,112 -42,172 -123,258 -88,93 -132,114 -250,119 -79,3 -98,1 -146,-20 z m 257,-88 c 37,-23 91,-86 152,-177 l 43,-64 -4,-132 -3,-133 -43,-87 c -81,-163 -117,-187 -295,-194 l -118,-5 -35,34 c -125,120 -214,301 -214,436 0,172 138,325 309,344 90,10 170,1 208,-22 z m 10,-419 c -33,-26 -35,-59 -4,-88 56,-52 140,5 125,85 -5,28 -86,30 -121,3 z m 2253,445 c -17,-20 1,-42 43,-51 18,-3 57,-22 87,-40 31,-19 59,-34 63,-34 16,0 5,39 -23,83 -31,49 -52,57 -92,36 -17,-9 -24,-8 -33,5 -15,20 -29,20 -45,1 z m -1585,-35 c -13,-21 164,-184 182,-167 8,9 -69,98 -121,141 -48,39 -52,41 -61,26 z m 1431,-48 c -10,-31 3,-51 42,-62 61,-16 122,-11 122,12 0,10 -89,53 -132,63 -20,5 -27,3 -32,-13 z m -1224,-24 c 4,-31 74,-63 282,-133 183,-61 270,-79 249,-53 -7,8 -50,31 -95,52 -46,21 -108,50 -138,65 -30,16 -90,36 -133,46 -43,9 -94,23 -113,31 -46,19 -56,18 -52,-8 z m 468,-45 c 0,-23 52,-74 99,-98 19,-10 66,-28 105,-41 132,-45 125,-29 -32,75 -116,77 -172,98 -172,64 z m 481,-2 c -11,-7 -10,-12 7,-29 43,-43 220,-89 237,-62 9,15 -12,30 -42,30 -12,0 -51,13 -85,29 -83,37 -100,42 -117,32 z m -259,-43 c 7,-21 101,-88 141,-100 78,-24 54,16 -47,76 -61,36 -101,46 -94,24 z m -612,-24 c 0,-14 5,-45 11,-70 9,-36 20,-51 55,-75 38,-26 44,-35 44,-66 0,-31 8,-44 48,-83 57,-55 111,-82 155,-78 26,2 32,7 32,26 0,15 -9,28 -25,36 -14,7 -47,24 -73,37 -27,13 -63,36 -80,51 l -32,27 44,1 c 38,0 43,2 38,20 -4,15 0,20 15,20 35,0 13,24 -58,63 -38,21 -87,56 -109,77 -47,46 -65,50 -65,14 z m 845,-74 c -8,-12 25,-25 85,-33 l 45,-6 -40,18 c -59,28 -83,33 -90,21 z m -650,-310 c -10,-16 55,-82 129,-131 54,-36 63,-39 130,-39 39,0 111,5 159,11 49,6 91,8 94,5 14,-13 -131,-176 -156,-176 -10,0 -48,22 -87,49 -125,88 -151,67 -45,-36 39,-38 71,-74 71,-80 0,-6 -8,-25 -17,-43 -18,-31 -18,-31 7,-52 30,-25 212,-114 255,-124 27,-7 29,-6 16,10 -8,9 -48,41 -90,70 -42,30 -85,63 -95,75 -11,12 -26,21 -35,21 -12,1 -10,5 8,20 13,11 29,20 37,20 7,0 21,15 30,33 10,17 34,52 55,77 39,47 89,134 89,156 0,20 -27,24 -140,21 -98,-2 -110,0 -180,30 -41,17 -104,44 -140,58 -36,14 -70,28 -76,31 -7,3 -15,0 -19,-6 z M 2260,9372 c 0,-13 20,-17 195,-42 148,-21 261,-26 235,-11 -19,11 -247,48 -352,57 -53,5 -78,3 -78,-4 z m 2823,-102 c -27,-11 -30,-25 -7,-34 18,-7 63,2 81,17 31,23 -26,36 -74,17 z m -2683,-20 c -101,-10 -236,-40 -258,-57 -15,-13 -11,-14 33,-8 80,10 331,24 445,26 168,2 197,19 64,39 -77,11 -171,11 -284,0 z m 258,-127 c -22,-5 -23,-19 -4,-26 20,-8 88,12 81,24 -6,9 -46,10 -77,2 z m -157,-36 c -78,-26 -97,-54 -31,-43 47,7 120,41 120,56 0,14 -17,12 -89,-13 z m 1055,14 c 5,-5 52,-17 104,-26 104,-18 120,-26 120,-61 0,-31 14,-31 28,1 19,40 14,53 -20,64 -78,25 -252,41 -232,22 z m -163,-28 c -7,-2 -13,-9 -13,-15 0,-12 90,-1 105,13 9,9 -70,12 -92,2 z m 3972,-15 c -11,-6 -28,-17 -37,-25 -9,-8 -75,-43 -146,-78 l -129,-63 -49,39 c -27,21 -53,39 -59,39 -5,0 -35,12 -65,26 -30,14 -76,34 -102,45 l -48,19 7,-48 c 8,-62 21,-75 99,-101 79,-26 116,-44 134,-66 19,-23 56,-13 182,51 107,54 138,63 138,44 0,-27 -67,-124 -111,-161 -27,-22 -49,-47 -49,-55 0,-17 -26,-19 -36,-3 -12,19 -147,79 -179,79 l -30,-1 25,-20 c 29,-25 120,-72 170,-88 33,-10 42,-8 110,26 l 75,38 67,135 c 37,74 68,143 68,152 0,23 -12,28 -35,16 z m -4035,-18 c 0,-5 5,-10 10,-10 6,0 10,5 10,10 0,6 -4,10 -10,10 -5,0 -10,-4 -10,-10 z m 42,-69 c -20,-12 14,-19 139,-27 70,-4 108,-3 113,4 13,22 -220,44 -252,23 z m 51,-118 c -40,-8 -73,-19 -73,-24 0,-13 287,-11 295,1 3,6 -6,15 -22,21 -45,18 -122,19 -200,2 z m 3572,-253 c -8,-13 33,-66 95,-123 35,-33 50,-54 50,-72 0,-57 39,-100 145,-160 62,-35 96,-65 89,-77 -4,-6 -34,-7 -73,-3 -54,5 -70,4 -80,-9 -27,-33 26,-78 136,-115 64,-21 123,-28 123,-13 0,5 -16,27 -36,50 -19,23 -33,46 -29,52 3,5 41,36 83,69 103,78 129,108 113,124 -14,14 -129,16 -231,5 -42,-5 -70,-4 -80,3 -11,8 -12,12 -2,16 25,10 10,29 -38,46 -31,11 -47,22 -44,30 6,16 -15,35 -76,70 -64,38 -42,33 67,-14 53,-22 98,-38 100,-35 13,13 -11,59 -40,76 -29,19 -234,90 -256,90 -6,0 -13,-4 -16,-10 z m 533,-309 c 10,-6 4,-16 -24,-40 -44,-35 -72,-39 -104,-13 -20,16 -21,19 -6,32 27,22 112,35 134,21 z M 3983,7993 c -15,-5 -17,-41 -4,-62 12,-18 31,-5 31,22 0,29 -12,45 -27,40 z m -1827,-33 c -46,-86 -123,-375 -114,-430 7,-49 23,-18 45,90 12,63 39,165 59,226 38,118 44,178 10,114 z m 5149,5 c -19,-14 -18,-17 53,-86 75,-72 85,-99 39,-99 -33,0 -62,-23 -54,-45 6,-14 15,-16 55,-11 111,14 209,17 240,9 l 34,-8 -42,-52 c -52,-66 -71,-72 -118,-39 -35,25 -38,25 -50,9 -12,-17 -15,-16 -36,11 -13,15 -26,24 -29,19 -12,-19 28,-74 77,-107 28,-18 65,-52 83,-74 36,-44 121,-92 165,-92 38,0 35,14 -9,42 -55,33 -113,88 -113,106 0,17 30,60 105,147 56,66 85,105 85,117 0,13 -44,9 -91,-8 -55,-19 -143,-21 -165,-3 -9,7 -25,32 -36,56 -39,83 -147,144 -193,108 z m -5352,-20 c -21,-53 -25,-75 -13,-75 14,0 32,48 28,79 l -3,26 z m -188,-17 c 16,-72 87,-180 106,-161 12,12 -80,193 -98,193 -11,0 -13,-8 -8,-32 z m 248,-97 c -37,-67 -39,-68 -57,-33 -35,67 -48,22 -20,-63 14,-41 15,-55 5,-96 -15,-56 -2,-142 28,-198 11,-20 32,-60 46,-89 27,-52 45,-60 45,-19 0,12 9,40 21,61 19,36 19,39 3,57 -23,25 -31,24 -38,-6 -9,-36 -33,-31 -46,11 -19,56 -7,244 19,327 25,76 22,98 -6,48 z m -373,-60 c 0,-13 42,-42 123,-85 110,-58 128,-43 51,42 -41,47 -47,50 -70,40 -18,-8 -31,-8 -49,0 -31,14 -55,15 -55,3 z m 725,-43 c -30,-24 -85,-104 -85,-125 0,-27 21,-11 55,42 42,66 60,69 147,23 94,-50 128,-105 128,-208 0,-50 -13,-70 -44,-70 -18,0 -18,1 -3,18 10,10 17,22 17,25 0,22 -118,-16 -134,-42 -12,-19 3,-32 25,-21 15,8 25,6 46,-10 23,-17 34,-18 62,-10 72,20 81,33 81,115 0,164 -31,220 -143,260 -84,31 -116,31 -152,3 z m 1395,-107 c -188,-70 -207,-108 -23,-46 122,42 143,52 143,65 0,17 -42,10 -120,-19 z m -331,-5 c -56,-15 -143,-63 -231,-128 -63,-46 -82,-68 -58,-68 5,0 56,29 112,63 107,66 168,100 168,94 0,-3 -14,-22 -31,-43 -39,-50 -23,-54 38,-11 26,19 74,49 106,67 31,17 57,34 57,36 0,9 -118,2 -161,-10 z m 491,-27 c -37,-15 -150,-90 -150,-100 0,-17 21,-9 73,26 41,28 62,35 99,35 52,0 71,16 43,37 -22,15 -31,15 -65,2 z m -763,-39 c -77,-45 -150,-100 -143,-107 6,-7 153,72 190,102 53,43 23,46 -47,5 z m -1512,23 c -63,-14 -115,-37 -138,-61 -34,-35 -60,-112 -83,-242 l -18,-102 -40,4 c -23,3 -86,26 -142,52 -56,25 -104,46 -108,46 -19,0 -1,-33 35,-64 43,-36 107,-61 238,-92 68,-16 74,-16 83,0 6,10 22,16 47,16 74,0 101,11 128,51 13,21 23,45 21,54 -2,13 -12,8 -45,-24 -49,-49 -86,-54 -127,-16 -30,28 -31,38 -11,123 28,118 45,133 163,148 l 52,7 83,-88 c 98,-105 101,-109 87,-135 -17,-32 10,-25 63,15 70,54 81,85 31,85 -18,0 -29,12 -49,53 -32,67 -95,140 -139,161 -32,15 -87,19 -131,9 z m 5977,-22 c 2,-7 7,-12 11,-12 12,1 9,15 -3,20 -7,2 -11,-2 -8,-8 z m -5387,-57 c -28,-96 -32,-104 -59,-104 -25,0 -36,-29 -36,-94 v -31 l 45,50 c 61,67 85,115 85,167 0,73 -16,78 -35,12 z m 495,31 c 0,-15 26,-32 36,-23 2,3 2,13 -2,22 -8,20 -34,21 -34,1 z m 245,-21 c -27,-20 -75,-61 -107,-91 -54,-54 -57,-55 -89,-44 -17,6 -43,11 -56,11 h -24 l 20,-26 c 12,-15 21,-35 21,-44 0,-21 16,-35 51,-43 14,-4 57,-34 95,-68 73,-65 130,-99 164,-99 36,0 21,28 -32,64 -29,19 -78,57 -108,84 l -55,50 37,53 c 21,30 65,84 98,122 68,74 62,86 -15,31 z m 1028,16 c -13,-5 -23,-14 -23,-19 0,-9 26,-13 160,-27 36,-4 76,-11 90,-16 l 25,-9 -25,26 c -14,15 -37,33 -52,41 -30,16 -140,18 -175,4 z m -1588,-82 c -22,-12 -45,-37 -45,-50 0,-16 27,-7 49,16 28,30 25,50 -4,34 z m 5125,-20 c 0,-6 12,-26 26,-45 14,-19 39,-62 54,-97 18,-39 44,-76 66,-94 31,-26 119,-64 202,-87 34,-10 26,11 -15,40 l -38,25 h 65 c 42,0 80,7 108,20 39,17 42,18 42,2 -1,-25 -35,-97 -71,-147 -44,-61 -74,-71 -149,-53 -33,8 -62,12 -65,10 -14,-14 -1,-39 28,-53 18,-9 64,-33 104,-55 74,-41 96,-41 69,-2 -9,12 -16,26 -16,29 0,4 20,31 45,60 77,91 184,329 147,329 -6,0 -48,-22 -93,-50 -70,-43 -90,-50 -133,-50 -50,0 -56,3 -204,115 -84,63 -157,115 -162,115 -6,0 -10,-5 -10,-12 z m -3398,-8 c -41,-17 -20,-35 46,-38 34,-2 62,1 62,6 0,28 -69,48 -108,32 z m -672,-31 c -107,-8 -308,-53 -336,-74 -18,-13 -17,-14 13,-15 18,0 54,5 80,10 26,6 134,23 238,39 l 190,29 21,-26 c 19,-23 22,-24 60,-12 68,22 99,41 83,51 -16,10 -213,9 -349,-2 z m 418,-16 c 6,-2 18,-2 25,0 6,3 1,5 -13,5 -14,0 -19,-2 -12,-5 z m 2359,-8 c -8,-20 51,-105 92,-132 57,-38 58,-12 2,58 -28,35 -51,69 -51,76 0,18 -37,16 -43,-2 z M 654,7335 c -4,-9 1,-24 10,-34 18,-20 166,-96 209,-106 42,-11 33,10 -20,42 -45,27 -168,101 -186,110 -4,2 -10,-3 -13,-12 z m 216,-12 c 0,-9 18,-32 39,-52 47,-43 149,-106 158,-97 8,8 -19,37 -100,107 -69,60 -97,72 -97,42 z m 5222,-10 c -29,-21 -122,-131 -122,-146 0,-6 24,12 53,41 29,29 55,52 59,52 3,0 9,-11 12,-24 10,-40 135,-141 152,-123 4,3 -11,28 -32,54 -65,79 -67,83 -73,120 -7,42 -17,48 -49,26 z m -5669,0 c -26,-9 -11,-25 50,-52 184,-83 291,-89 129,-7 -74,37 -160,65 -179,59 z m 3402,-7 c -26,-19 -13,-31 35,-31 42,0 59,10 44,24 -18,19 -59,22 -79,7 z m 435,0 c 0,-17 56,-66 76,-66 28,0 9,34 -36,64 -30,20 -40,20 -40,2 z m 1661,-42 c -53,-61 -117,-194 -93,-194 8,0 109,157 141,218 19,37 -5,25 -48,-24 z m -68,24 c -21,-27 -24,-38 -10,-38 7,0 19,11 25,25 12,26 2,34 -15,13 z m -4141,-48 c -13,-11 -22,-24 -20,-30 4,-13 74,21 71,35 -3,18 -27,15 -51,-5 z M 280,7214 c 0,-8 17,-22 37,-30 53,-23 173,-46 200,-39 31,7 30,35 -1,35 -13,0 -63,11 -110,25 -100,29 -126,31 -126,9 z m 2477,9 c -12,-12 -7,-23 9,-23 9,0 38,-13 63,-28 25,-16 54,-31 64,-35 31,-12 19,19 -23,57 -29,26 -49,36 -73,36 -19,0 -37,-3 -40,-7 z m 1441,-53 c -40,-21 -57,-40 -36,-40 19,1 95,36 102,49 11,17 -25,12 -66,-9 z m 1554,-15 c -38,-46 -118,-202 -109,-211 11,-12 36,17 65,75 16,31 41,77 56,103 36,62 29,82 -12,33 z m -3732,-15 c -19,-11 -56,-31 -82,-44 -93,-45 -155,-107 -142,-140 9,-22 19,-20 32,8 7,17 32,32 82,51 111,42 183,106 153,136 -5,5 -23,0 -43,-11 z m -1865,2 c -79,-9 -38,-41 63,-48 73,-6 143,5 149,23 6,16 -141,33 -212,25 z m 696,-8 c 12,-15 61,-44 75,-44 13,0 -20,31 -47,46 -36,18 -45,18 -28,-2 z m -249,-6 c 7,-21 74,-33 105,-19 22,10 24,14 12,22 -22,14 -121,12 -117,-3 z m 3733,-56 c -122,-65 -194,-122 -154,-122 23,0 259,139 259,153 0,16 -38,5 -105,-31 z m 719,-16 c -66,-49 -130,-113 -122,-121 3,-3 25,10 49,29 24,19 68,51 97,71 28,20 52,40 52,45 0,23 -23,16 -76,-24 z m -2182,20 c -102,-33 -118,-62 -128,-232 l -7,-120 44,-38 c 77,-66 215,-125 329,-141 82,-11 234,-91 292,-152 74,-80 108,-163 72,-177 -30,-12 -109,-6 -192,14 -97,23 -135,25 -130,8 7,-19 89,-47 199,-68 116,-23 138,-31 166,-61 30,-33 63,-108 63,-146 v -33 h -90 c -103,0 -180,-23 -223,-68 -28,-29 -52,-112 -42,-149 4,-19 0,-25 -22,-34 -15,-5 -45,-9 -67,-7 -38,3 -42,6 -76,68 -29,52 -45,69 -81,87 -78,38 -102,39 -144,1 -21,-18 -46,-52 -57,-77 l -19,-44 -92,6 c -188,12 -405,91 -531,194 -32,26 -69,57 -82,67 -31,26 -134,36 -134,13 0,-23 84,-93 173,-145 l 77,-45 v -89 -89 l 39,-42 40,-42 83,-3 83,-3 55,73 c 61,80 61,80 152,55 109,-30 288,-40 596,-34 160,3 292,2 292,-2 0,-12 -105,-158 -138,-194 -15,-16 -43,-37 -63,-47 -23,-12 -51,-42 -79,-85 -54,-83 -91,-115 -135,-115 -83,0 -85,-27 -5,-65 l 60,-29 43,42 c 48,47 57,50 74,23 7,-11 27,-22 45,-26 54,-12 85,-33 96,-63 11,-33 16,-34 206,-52 60,-5 111,-12 114,-15 3,-2 -12,-28 -32,-57 -34,-51 -47,-86 -81,-227 -17,-67 -17,-161 0,-162 5,0 13,13 16,28 3,15 11,38 18,51 7,13 16,48 21,79 11,68 33,93 89,100 57,8 61,21 12,40 -52,20 -53,44 -6,106 19,25 35,52 35,60 0,15 -171,81 -240,93 -52,9 -90,25 -90,38 0,39 52,45 177,21 43,-8 100,-15 126,-15 44,0 53,4 102,51 57,54 110,144 164,282 57,142 146,307 166,307 6,0 29,-29 52,-64 l 41,-63 -60,-94 c -87,-138 -113,-192 -173,-372 -31,-89 -68,-193 -84,-232 -15,-38 -36,-92 -46,-120 -9,-27 -25,-72 -35,-100 -26,-71 -50,-195 -50,-257 0,-97 36,-132 155,-153 134,-24 283,-44 440,-60 119,-13 172,-23 253,-51 92,-32 111,-35 166,-29 54,5 65,3 89,-15 30,-24 35,-40 13,-40 -8,0 -27,-5 -42,-10 -33,-13 -22,-28 28,-40 82,-20 -63,-9 -202,15 -80,14 -228,34 -330,46 -102,11 -216,27 -255,35 -38,8 -106,22 -149,30 -43,8 -85,19 -92,25 -7,6 -28,7 -48,3 -29,-5 -36,-3 -36,10 0,20 -14,21 -31,0 -7,-8 -25,-21 -40,-27 -15,-7 -52,-43 -81,-82 -53,-69 -56,-71 -138,-98 -98,-31 -144,-61 -120,-77 8,-5 38,-14 65,-20 28,-6 63,-17 79,-25 39,-20 42,-19 56,16 7,17 35,49 61,71 51,43 60,58 34,58 -43,0 22,75 78,92 66,18 258,13 362,-10 50,-11 131,-25 180,-31 50,-6 146,-18 215,-26 69,-9 171,-24 228,-35 57,-11 130,-20 163,-20 54,0 64,3 90,29 36,37 37,60 2,102 -36,42 -73,56 -169,65 -43,4 -120,19 -170,35 -51,15 -127,32 -170,38 -245,32 -542,73 -561,77 -12,2 -35,15 -51,29 l -30,25 24,77 c 33,106 80,200 110,219 22,15 28,14 86,-5 34,-12 66,-21 71,-21 17,0 -7,23 -59,56 -66,42 -66,44 -23,251 43,210 52,239 135,419 90,196 102,239 84,283 -13,32 -115,131 -135,131 -13,0 -62,-51 -92,-95 -34,-49 -108,-202 -152,-313 -49,-122 -81,-186 -113,-225 l -23,-29 -140,22 c -153,23 -189,21 -252,-16 -54,-31 -88,-31 -109,1 -20,30 -11,45 26,45 35,0 45,14 41,56 -2,25 8,43 51,93 223,261 268,460 162,708 -43,100 -40,122 18,160 l 42,28 -35,3 c -53,5 -56,18 -14,57 l 39,35 h -36 c -28,0 -49,10 -95,48 -32,26 -95,74 -140,106 -77,55 -82,61 -92,108 -6,27 -11,60 -11,75 0,42 -30,143 -60,202 -32,63 -86,123 -133,147 -42,22 -142,27 -195,10 z m 129,-87 c 65,-14 114,-59 156,-143 31,-60 37,-80 36,-133 0,-33 -4,-67 -8,-73 -6,-9 -34,-11 -106,-7 -116,6 -167,28 -212,94 -34,47 -44,109 -32,197 11,89 26,95 166,65 z m 519,-1127 c 56,-28 67,-110 19,-140 -12,-8 -67,-16 -130,-19 l -109,-6 v 37 c 0,62 24,104 72,126 54,24 103,25 148,2 z m -573,-93 c 46,-22 79,-61 68,-79 -8,-13 -150,-13 -176,0 -41,22 -8,100 43,100 12,0 41,-10 65,-21 z m -564,-46 c 42,-13 77,-29 77,-35 0,-21 -43,-86 -65,-98 -19,-10 -32,-9 -71,4 -27,9 -57,23 -67,31 -19,13 -36,69 -37,113 0,22 3,23 43,17 23,-4 77,-18 120,-32 z m 1611,-927 c -6,-16 -24,-23 -24,-8 0,10 22,33 27,28 2,-2 1,-11 -3,-20 z m -396,-788 c -3,-7 -15,-15 -28,-16 -21,-3 -22,-2 -11,12 16,19 44,21 39,4 z m -698,2828 c 0,-40 22,-66 55,-66 44,0 39,81 -7,93 -42,12 -48,8 -48,-27 z m 1589,203 c -47,-28 -99,-61 -115,-74 -27,-23 -28,-24 -7,-25 40,0 243,116 243,141 0,20 -39,7 -121,-42 z m 728,19 c -48,-34 -58,-48 -34,-48 18,0 97,57 97,70 0,16 -13,12 -63,-22 z M 144,7051 C 80,7021 7,6963 15,6950 c 5,-8 183,77 211,101 15,12 10,29 -9,29 -7,0 -39,-13 -73,-29 z m 4535,-12 c -105,-68 -151,-121 -67,-78 71,36 148,91 148,105 0,21 -12,17 -81,-27 z m 691,-14 c -52,-53 -62,-77 -22,-56 24,13 92,88 92,101 0,20 -17,9 -70,-45 z m -4140,36 c 0,-11 31,-24 39,-16 3,3 -1,10 -9,15 -19,12 -30,12 -30,1 z m 3611,-41 c -60,-50 -76,-68 -69,-76 7,-6 130,82 140,99 19,35 -14,24 -71,-23 z m -4511,3 c -113,-67 -194,-140 -205,-184 -11,-43 13,-46 47,-5 16,20 44,44 61,52 18,9 52,37 77,63 25,26 61,59 80,73 34,26 34,27 10,27 -14,1 -45,-11 -70,-26 z m 6141,-23 c -57,-47 -88,-86 -78,-96 6,-6 148,110 159,130 18,32 -21,16 -81,-34 z m -5741,34 c -30,-2 -93,-9 -139,-15 -69,-10 -87,-16 -105,-37 -11,-14 -56,-64 -98,-110 -83,-90 -105,-135 -44,-88 57,43 63,28 14,-40 -24,-34 -29,-47 -20,-56 17,-17 106,77 122,128 33,102 108,148 266,164 143,14 247,12 349,-5 50,-9 104,-18 122,-21 17,-2 57,-23 90,-44 l 58,-40 23,25 c 22,26 29,55 13,55 -5,0 -14,-7 -21,-15 -18,-21 -44,-19 -66,6 -26,30 -69,46 -179,69 -94,19 -282,31 -385,24 z m 3305,-4 c -4,-6 8,-10 30,-10 22,0 34,4 30,10 -3,6 -17,10 -30,10 -13,0 -27,-4 -30,-10 z m 1471,-51 c -45,-60 -54,-79 -38,-79 16,0 102,112 102,132 0,21 -23,2 -64,-53 z m -3986,11 c 0,-5 7,-10 16,-10 8,0 12,5 9,10 -3,6 -10,10 -16,10 -5,0 -9,-4 -9,-10 z m 575,-18 c -39,-26 -106,-98 -134,-143 -62,-105 -75,-212 -41,-344 35,-136 64,-166 183,-185 128,-20 247,20 343,116 43,43 57,66 74,120 27,88 26,174 -2,233 -30,63 -121,150 -193,185 -80,39 -185,47 -230,18 z m 168,-71 c 66,-7 83,-13 108,-37 39,-38 59,-109 59,-214 0,-114 -20,-171 -81,-232 -56,-56 -86,-61 -192,-28 -86,27 -128,73 -162,183 -35,109 -34,180 3,238 61,93 101,107 265,90 z m -227,-216 c -9,-25 14,-75 39,-81 26,-6 76,14 83,33 2,7 -8,24 -22,38 -29,29 -90,35 -100,10 z m 1709,285 c 15,-24 185,-43 185,-21 0,5 -20,14 -44,20 -55,14 -149,15 -141,1 z m 1355,-19 c -16,-30 -12,-33 20,-16 17,9 30,20 30,25 0,18 -39,10 -50,-9 z M 85,6919 C 31,6871 -18,6790 7,6790 c 9,0 133,144 133,154 0,14 -22,4 -55,-25 z m 3253,2 c 26,-22 146,-65 165,-58 16,6 -108,65 -153,72 l -35,6 z m 202,5 c 0,-21 55,-45 121,-53 67,-8 63,10 -8,37 -86,32 -113,36 -113,16 z m 2916,-87 c -68,-69 -69,-70 -22,-38 27,19 67,51 90,71 32,29 37,37 22,38 -10,0 -50,-32 -90,-71 z m -5115,-34 c -48,-55 -39,-79 9,-28 39,41 50,63 31,63 -5,0 -23,-16 -40,-35 z M 103,6758 c -41,-43 -66,-94 -58,-118 10,-31 35,-25 35,9 0,17 14,46 35,74 53,69 45,94 -12,35 z m 7757,14 c 0,-20 152,-182 170,-182 31,0 -25,85 -104,158 -50,46 -66,52 -66,24 z m -3584,-85 c -21,-7 -44,-20 -50,-30 -9,-16 -2,-27 52,-78 34,-32 99,-80 143,-106 44,-25 82,-49 84,-53 2,-4 -11,-39 -30,-78 -19,-39 -35,-79 -35,-88 0,-9 14,-29 30,-44 23,-22 30,-36 30,-67 -1,-21 -7,-49 -15,-63 -18,-31 -20,-73 -2,-68 6,3 14,13 16,24 6,32 40,73 96,114 30,22 57,51 63,69 19,53 -7,55 -69,6 -55,-44 -69,-45 -37,-2 58,75 78,111 69,120 -11,11 -66,-20 -96,-53 -18,-20 -45,-27 -45,-12 0,4 16,27 35,52 106,137 99,125 75,128 -11,2 -28,-2 -36,-9 -24,-20 -29,-1 -8,29 11,15 57,45 102,67 45,22 82,43 82,48 0,11 -38,24 -97,32 -56,7 -55,8 -67,-45 -3,-14 -15,-35 -25,-48 l -20,-23 -46,36 c -26,19 -52,35 -58,35 -20,0 -87,60 -87,77 0,13 14,15 100,11 55,-3 100,-1 100,3 0,27 -181,38 -254,16 z m 2114,3 c -8,-5 -11,-12 -8,-16 10,-9 58,4 58,16 0,13 -30,13 -50,0 z m -5056,-64 c -17,-20 -44,-63 -60,-94 -37,-76 -77,-134 -136,-199 -54,-59 -58,-69 -25,-52 60,31 106,82 147,161 l 43,82 12,-39 11,-40 33,50 c 49,77 55,118 12,95 -16,-8 -21,-8 -21,3 0,7 5,18 11,24 6,6 9,19 7,29 -2,15 -9,11 -34,-20 z m 3443,24 c -26,-16 -12,-28 41,-35 26,-3 76,-14 112,-25 36,-10 81,-21 101,-24 19,-4 44,-13 55,-20 18,-14 17,-15 -14,-33 -17,-10 -32,-21 -32,-24 0,-7 202,-41 208,-34 21,20 -161,142 -225,150 -27,4 -68,15 -93,25 -59,24 -130,33 -153,20 z m 1502,-26 c -29,-32 -31,-35 -9,-24 31,16 60,40 60,52 0,16 -17,7 -51,-28 z m -5069,-23 c -31,-9 -98,-37 -150,-61 -110,-51 -182,-61 -253,-37 -38,13 -75,14 -241,6 -210,-10 -243,-5 -233,32 9,36 -20,20 -77,-42 -65,-69 -79,-116 -18,-56 l 38,38 47,-36 c 51,-39 68,-42 120,-20 55,23 86,20 97,-10 l 10,-25 54,30 c 66,38 166,53 166,27 0,-9 -14,-32 -31,-52 -39,-44 -22,-46 52,-5 30,16 77,37 106,45 29,8 89,33 135,55 45,22 89,40 98,40 9,0 25,7 36,15 10,8 29,15 40,15 23,0 74,35 74,51 0,12 -5,11 -70,-10 z M 125,6589 c -11,-42 24,-105 45,-83 9,10 -12,80 -29,97 -7,7 -12,2 -16,-14 z m 7745,-16 c 0,-10 32,-60 70,-112 39,-51 70,-98 70,-102 0,-5 -7,-9 -15,-9 -30,0 -7,-41 40,-70 19,-12 35,-26 35,-32 0,-5 -19,2 -42,16 -116,69 -173,81 -130,25 53,-67 87,-181 69,-228 -9,-25 -7,-42 11,-98 12,-37 22,-72 22,-77 0,-15 87,-140 119,-170 30,-29 31,-29 31,-8 0,13 -7,39 -15,59 -8,19 -15,41 -15,48 0,7 51,51 113,99 61,47 128,99 147,116 32,28 33,31 17,47 -14,14 -41,18 -147,21 -71,3 -146,1 -166,-3 -32,-6 -35,-8 -23,-21 10,-9 50,-16 122,-20 76,-5 107,-11 107,-20 0,-25 -163,-154 -195,-154 -9,0 -22,15 -30,33 -14,35 -40,170 -48,250 -4,43 -3,47 17,47 11,0 39,-7 61,-15 80,-29 84,-15 20,67 l -44,57 34,21 c 18,11 47,37 64,56 35,39 95,153 87,162 -4,3 -60,-15 -125,-39 l -119,-45 -60,58 c -62,60 -82,70 -82,41 z m 320,-89 c 0,-17 -25,-46 -69,-78 -27,-20 -51,-36 -54,-36 -4,0 -11,9 -17,21 -9,17 -8,25 7,41 29,33 133,73 133,52 z m -1955,12 c -58,-28 -92,-52 -84,-60 8,-8 149,61 149,74 0,15 -9,13 -65,-14 z M 1039,6353 C 876,6187 730,6006 730,5969 c 0,-22 41,25 101,116 46,69 89,117 186,205 70,64 136,130 146,148 37,64 -8,33 -124,-85 z m -24,91 c -43,-22 -75,-55 -75,-76 0,-27 9,-22 75,37 59,54 59,70 0,39 z m 2988,9 c 9,-2 23,-2 30,0 6,3 -1,5 -18,5 -16,0 -22,-2 -12,-5 z m -256,-27 c -43,-13 -83,-28 -90,-35 -6,-6 -8,-11 -4,-11 24,0 254,53 262,61 18,18 -90,8 -168,-15 z m 1445,-23 c 2,-12 17,-20 47,-25 52,-9 81,-32 81,-65 0,-35 24,-75 65,-112 62,-54 73,-38 23,35 -22,33 -32,59 -31,83 1,20 -4,42 -10,50 -20,24 -90,51 -135,51 -36,0 -43,-3 -40,-17 z m -3789,-86 c -56,-64 -153,-241 -139,-254 3,-3 13,4 23,16 29,35 156,261 151,267 -3,2 -19,-11 -35,-29 z m 2489,17 c 9,-9 21,-13 27,-10 20,13 11,26 -16,26 -25,0 -26,-1 -11,-16 z m -2642,-60 c -22,-71 -26,-119 -10,-109 10,6 33,83 44,143 10,57 -12,34 -34,-34 z m 2452,37 c -26,-16 19,-22 75,-11 29,6 53,13 53,16 0,8 -115,4 -128,-5 z m 2304,-72 c -42,-38 -104,-124 -94,-134 4,-4 158,160 158,169 0,14 -21,3 -64,-35 z m -516,-13 c 0,-34 61,-155 90,-181 l 23,-20 -6,35 c -9,45 -78,183 -94,188 -8,2 -13,-6 -13,-22 z m -2702,0 c -73,-16 -84,-26 -28,-26 60,0 170,20 170,31 0,12 -73,10 -142,-5 z m 901,-6 c -60,-7 -137,-35 -127,-46 6,-6 271,24 295,33 15,6 13,9 -12,14 -39,9 -74,8 -156,-1 z m -1081,-36 c -16,-8 -28,-19 -28,-24 0,-13 83,13 88,28 5,16 -27,15 -60,-4 z m 3419,-40 c -38,-25 -48,-44 -24,-44 15,0 73,57 66,65 -3,2 -22,-7 -42,-21 z m -1374,-13 c -85,-40 -135,-93 -149,-156 -27,-120 -47,-192 -60,-223 -24,-56 -14,-156 14,-138 5,3 11,32 14,64 3,44 12,71 41,117 20,33 37,64 37,68 0,4 -10,12 -22,16 -22,9 -20,12 41,69 67,62 80,94 27,67 -55,-29 -37,-7 48,60 77,60 100,85 79,85 -5,0 -36,-13 -70,-29 z m 993,12 c -11,-12 -6,-94 8,-121 28,-55 115,-109 151,-96 14,6 14,8 0,24 -8,9 -23,41 -33,70 -10,30 -23,55 -29,57 -6,2 -14,-14 -18,-36 -12,-69 -26,-49 -50,66 -7,34 -17,47 -29,36 z m -2818,-10 c 6,-2 18,-2 25,0 6,3 1,5 -13,5 -14,0 -19,-2 -12,-5 z m 118,-53 c -79,-25 -98,-45 -34,-37 60,8 121,33 113,47 -8,12 -6,12 -79,-10 z m 4550,-15 c -16,-43 47,-235 70,-212 8,8 -9,127 -28,190 -11,38 -31,49 -42,22 z m -6199,-25 c -29,-33 -43,-36 -71,-15 -47,35 -48,4 -4,-76 29,-52 31,-62 21,-89 -11,-29 -10,-32 35,-66 43,-32 90,-84 118,-130 10,-15 15,-17 25,-7 10,11 10,22 0,63 -7,28 -10,62 -7,75 5,21 -1,30 -44,61 -34,25 -52,46 -59,69 -10,36 0,100 18,118 6,6 11,15 11,19 0,17 -19,7 -43,-22 z m 4610,-9 c -45,-50 -55,-85 -34,-120 33,-55 57,-31 57,57 0,24 5,52 11,63 21,40 2,40 -34,0 z m -3134,2 c -7,-2 -13,-11 -13,-20 0,-11 7,-13 33,-8 39,9 47,13 47,26 0,9 -46,11 -67,2 z m 3233,-44 c -14,-11 -26,-25 -26,-30 0,-17 26,-9 48,14 38,40 23,51 -22,16 z M 693,5929 c -23,-28 -26,-67 -7,-98 16,-27 16,-34 1,-108 -9,-43 -19,-100 -22,-128 -4,-27 -15,-86 -25,-130 -26,-116 -30,-145 -22,-145 5,0 21,42 36,93 15,50 37,107 48,126 30,48 55,308 32,326 -9,6 -19,26 -23,44 -5,27 -9,31 -18,20 z m 6757,-93 c -13,-35 -13,-226 0,-261 5,-14 17,-28 26,-32 37,-14 43,45 19,202 -17,109 -28,134 -45,91 z m 588,-132 c -24,-51 17,-147 101,-237 66,-71 161,-115 117,-55 -9,13 -30,41 -46,63 -16,22 -48,83 -71,135 -23,52 -46,101 -52,108 -15,20 -37,14 -49,-14 z m -3484,-16 c -35,-42 -84,-146 -84,-178 0,-14 9,-43 20,-65 13,-25 20,-59 20,-95 0,-33 8,-72 20,-99 11,-24 20,-49 20,-55 0,-18 40,-52 81,-69 20,-8 45,-30 57,-49 11,-18 32,-44 46,-57 14,-13 31,-39 37,-58 14,-42 71,-72 137,-73 h 42 l -6,85 c -7,91 3,111 27,53 18,-44 248,-274 329,-328 36,-24 90,-66 120,-93 66,-60 158,-123 167,-114 7,7 4,10 -83,117 -78,96 -107,142 -128,208 -10,28 -22,52 -26,52 -13,0 -27,-29 -35,-73 -4,-20 -10,-37 -14,-37 -12,0 -90,109 -117,162 -30,59 -42,67 -63,39 l -17,-22 -26,28 c -14,15 -33,44 -43,63 -10,19 -28,47 -42,61 -13,14 -27,39 -32,55 -10,38 -24,37 -32,-4 -17,-81 -90,-97 -176,-38 -27,18 -68,43 -91,55 -24,12 -45,28 -48,35 -4,11 1,41 17,106 3,11 -4,14 -28,11 l -33,-3 v 55 c 0,45 5,61 30,92 46,58 40,67 -25,39 -81,-33 -84,13 -10,134 25,40 45,77 45,82 0,21 -29,9 -56,-22 z m 330,-692 c 9,-38 -2,-58 -25,-43 -25,15 -32,36 -18,53 17,21 36,17 43,-10 z m -3688,665 c -4,-5 -1,-22 5,-38 6,-15 17,-65 24,-111 8,-46 19,-89 25,-96 6,-8 29,-16 51,-20 23,-4 61,-18 85,-32 24,-14 53,-24 65,-22 19,3 11,13 -54,71 -80,71 -93,98 -56,117 29,16 21,52 -16,69 -16,8 -45,27 -63,43 -33,29 -56,35 -66,19 z m 269,-34 c -17,-13 -17,-15 6,-30 13,-10 40,-17 61,-17 21,0 38,-4 38,-9 0,-14 -65,-59 -116,-81 -39,-17 -44,-23 -34,-35 19,-23 51,-18 101,13 43,28 119,104 119,120 -1,43 -129,72 -175,39 z m 5890,-19 c -24,-80 14,-353 51,-365 24,-8 26,266 2,345 -10,33 -44,46 -53,20 z m 705,-138 c -20,-48 -9,-195 19,-249 19,-36 24,-64 26,-145 3,-111 27,-206 50,-206 12,0 15,20 15,105 v 105 h 28 c 16,0 47,13 68,29 65,48 191,172 169,167 -11,-2 -55,-7 -98,-11 -67,-6 -83,-4 -122,15 -51,25 -99,95 -110,161 -9,54 -29,67 -45,29 z m 174,-247 c 11,-7 29,-13 39,-13 28,0 20,-26 -20,-60 -34,-31 -37,-31 -50,-14 -15,20 -33,79 -33,107 0,15 3,16 21,5 12,-7 31,-19 43,-25 z M 685,5370 c -34,-67 -58,-174 -50,-222 4,-22 17,-51 29,-65 l 23,-26 -15,77 c -16,83 -12,111 37,234 27,66 9,68 -24,2 z m 1046,-10 c -19,-16 -69,-40 -120,-56 -47,-14 -90,-29 -94,-31 -19,-11 15,-26 70,-32 43,-4 59,-10 61,-23 5,-25 -64,-95 -114,-118 -51,-22 -57,-40 -15,-40 77,0 130,45 167,142 23,62 28,67 49,62 20,-5 25,-1 29,18 8,37 12,108 6,108 -3,-1 -20,-14 -39,-30 z m 5544,-17 c -35,-71 -29,-341 6,-306 17,17 37,343 21,343 -5,0 -17,-17 -27,-37 z m -5935,-12 c 0,-5 14,-21 31,-35 17,-14 35,-41 40,-59 13,-46 46,-97 64,-97 12,0 14,7 9,28 -11,49 -55,131 -81,152 -26,21 -63,27 -63,11 z m 2630,-101 c -21,-21 -23,-29 -14,-54 14,-36 54,-4 54,43 0,30 -17,34 -40,11 z m -2024,-8 c -11,-19 35,-132 54,-132 14,0 12,19 -8,73 -20,52 -37,74 -46,59 z m -100,-42 c -9,-22 -16,-47 -16,-55 0,-22 24,-18 48,8 17,18 21,31 16,55 -9,44 -29,40 -48,-8 z m 524,20 c 0,-22 34,-60 78,-90 93,-61 92,-25 -2,51 -62,50 -76,57 -76,39 z M 740,5175 c -7,-8 -17,-69 -23,-135 l -11,-120 65,-66 c 70,-73 170,-142 267,-186 35,-16 82,-46 105,-67 55,-50 78,-61 126,-61 49,0 51,-10 15,-62 -29,-42 -27,-56 5,-38 26,13 26,14 -1,-91 -21,-80 -21,-91 -9,-190 20,-160 69,-339 92,-339 5,0 9,14 9,31 0,20 4,29 13,27 8,-3 14,-35 18,-90 8,-121 70,-272 181,-440 56,-84 72,-96 98,-73 9,8 19,15 22,15 3,0 11,-30 17,-67 23,-137 27,-146 49,-98 15,32 26,32 40,0 20,-42 14,-62 -33,-120 -25,-30 -42,-55 -39,-55 13,0 80,44 112,74 36,34 38,41 17,83 -16,32 -11,66 9,60 6,-2 33,-35 59,-75 32,-48 54,-72 67,-72 19,0 19,1 -1,35 -34,56 -3,43 68,-29 35,-36 63,-70 63,-75 0,-23 -21,-9 -47,31 l -28,42 -3,-40 c -6,-96 -14,-127 -40,-152 l -27,-25 48,6 c 26,4 47,3 47,0 0,-4 -23,-31 -51,-59 -28,-29 -49,-56 -46,-62 7,-10 213,88 271,130 21,15 57,33 78,39 35,9 44,7 83,-15 24,-14 51,-26 59,-26 9,0 38,-11 64,-25 26,-14 68,-29 94,-33 25,-5 58,-19 73,-31 27,-20 92,-30 80,-12 -8,14 43,50 81,57 19,3 33,11 31,18 -6,19 -46,18 -113,-4 -36,-12 -68,-19 -71,-16 -4,3 -4,7 -2,9 45,32 79,60 76,63 -2,3 -28,-1 -57,-7 -39,-8 -55,-8 -63,0 -16,16 8,31 46,31 18,0 27,4 25,13 -6,16 -103,26 -153,14 -75,-16 -117,-19 -127,-9 -8,8 -3,15 18,24 16,7 57,29 91,50 34,21 89,51 122,67 33,17 133,77 223,135 89,57 179,110 198,119 19,8 68,45 108,82 40,37 76,65 79,61 3,-3 0,-90 -8,-193 -7,-104 -13,-342 -13,-531 -1,-329 0,-344 18,-358 28,-20 69,-17 100,7 33,26 36,54 4,45 -50,-15 -52,-13 -61,49 -12,83 -1,545 17,750 9,94 16,204 16,246 0,67 -3,78 -24,99 -26,24 -56,22 -56,-5 0,-23 -73,-98 -149,-154 -79,-58 -210,-138 -346,-211 -55,-30 -144,-80 -198,-112 -54,-32 -153,-86 -220,-119 -67,-34 -130,-68 -140,-77 -22,-20 -32,-10 -17,17 11,22 8,26 -33,33 -18,3 -18,5 3,31 30,37 87,75 232,153 67,37 159,90 203,118 44,29 106,67 138,86 64,39 93,65 79,74 -11,7 -147,-72 -239,-140 -40,-30 -96,-62 -125,-73 -29,-10 -87,-34 -129,-51 -50,-22 -85,-31 -101,-27 -13,4 -56,44 -97,93 -70,82 -114,114 -160,114 -13,0 -37,25 -70,70 -50,69 -66,81 -73,59 -10,-30 -167,99 -203,165 -24,45 -50,49 -42,6 10,-49 -10,-44 -48,12 -19,29 -50,72 -67,96 -25,33 -33,56 -39,107 -5,47 -14,76 -34,104 -37,55 -42,106 -16,167 l 22,49 -29,-28 -29,-28 -7,23 c -9,36 -7,69 8,127 13,51 13,54 -6,59 -19,5 -20,10 -13,86 3,45 10,85 15,90 6,5 32,0 65,-12 106,-41 187,-23 151,33 -18,28 -33,31 -70,14 -21,-10 -30,-7 -68,18 -53,35 -56,57 -8,61 19,2 44,11 55,21 11,10 41,30 66,44 79,45 259,235 259,273 0,18 -17,18 -71,-2 -61,-21 -173,-44 -217,-44 -22,0 -59,13 -91,30 -76,42 -97,39 -70,-12 9,-16 7,-24 -11,-43 -31,-33 -12,-40 103,-37 95,3 109,-2 85,-26 -29,-29 7,-22 64,13 83,50 81,49 77,38 -5,-14 -210,-183 -222,-183 -9,0 -6,18 8,53 12,29 -8,19 -70,-33 -33,-28 -69,-53 -80,-55 -86,-17 -82,-18 -145,40 -43,40 -68,55 -88,55 -44,0 -94,39 -123,98 l -26,53 -21,-25 c -11,-14 -24,-26 -30,-26 -16,0 -52,83 -52,121 0,57 -15,68 -39,28 -12,-19 -21,-41 -21,-49 -1,-11 -4,-10 -16,5 -13,16 -15,42 -11,135 2,63 7,123 11,133 10,21 -7,23 -24,2 z M 1804,3244 c 3,-9 6,-25 6,-37 -1,-22 -1,-22 -15,-3 -17,22 -20,56 -6,56 5,0 12,-7 15,-16 z m 228,-102 c 6,-7 8,-16 4,-19 -4,-4 -23,10 -44,31 l -37,39 33,-19 c 19,-11 38,-25 44,-32 z m 142,-83 c 29,-34 33,-49 12,-49 -17,0 -56,46 -56,66 0,22 16,16 44,-17 z m 440,-220 c 18,-14 24,-25 17,-32 -20,-20 -100,20 -86,44 10,15 41,10 69,-12 z m -414,2336 c 0,-41 71,-125 106,-125 22,0 17,14 -27,69 -47,58 -79,81 -79,56 z m 475,5 c -15,-24 132,-130 180,-130 17,0 16,3 -6,26 -26,28 -123,96 -151,107 -10,3 -20,2 -23,-3 z m -105,-19 c 0,-32 140,-134 158,-116 9,9 -90,100 -129,120 -27,15 -29,14 -29,-4 z m 310,0 c 0,-31 137,-127 155,-109 11,11 -4,27 -67,74 -57,42 -88,54 -88,35 z m -1150,-34 c 0,-19 8,-52 17,-73 16,-36 18,-37 20,-14 2,14 0,45 -4,69 -10,55 -33,68 -33,18 z m -415,-6 c -7,-12 19,-38 45,-46 10,-3 22,-14 25,-24 11,-35 125,-131 125,-106 0,30 -88,152 -123,172 -26,15 -64,17 -72,4 z m 5841,-44 c -52,-88 -71,-193 -42,-232 8,-11 19,-16 30,-12 13,5 16,22 16,91 0,51 6,104 16,131 22,66 12,77 -20,22 z m 889,-185 c 8,-59 -8,-183 -41,-317 -32,-131 -31,-165 6,-234 37,-69 86,-129 96,-118 4,4 -10,59 -31,121 -23,71 -35,121 -31,133 7,15 11,12 27,-19 18,-35 23,-38 62,-38 133,0 255,111 330,299 27,67 14,72 -96,33 -104,-36 -131,-39 -206,-16 -41,12 -50,18 -42,28 9,10 5,35 -14,95 -21,67 -29,81 -46,81 -19,0 -20,-4 -14,-48 z m 352,-198 c 20,-53 -180,-247 -236,-229 -34,10 -62,70 -76,163 l -7,42 89,1 c 57,0 107,7 143,19 70,23 79,23 87,4 z m -5943,161 c -28,-14 -63,-39 -80,-56 l -29,-31 25,-20 c 33,-27 168,-94 250,-125 36,-14 79,-35 97,-49 34,-26 67,-30 126,-13 36,10 41,8 105,-34 87,-57 126,-71 263,-98 108,-20 189,-22 247,-4 34,11 29,-8 -44,-177 -36,-84 -73,-168 -80,-185 -14,-32 -15,-33 -82,-34 -37,0 -76,-4 -87,-8 -19,-8 -19,-8 2,-19 12,-7 31,-12 43,-12 29,0 60,-18 60,-35 0,-34 -79,-46 -130,-20 -16,8 -36,27 -43,41 l -14,26 -31,-40 c -18,-22 -32,-45 -32,-51 0,-6 18,-11 43,-11 57,0 156,-24 174,-43 10,-10 13,-23 8,-37 -6,-19 -12,-21 -43,-16 -20,3 -64,19 -98,36 -34,16 -64,30 -68,30 -3,0 -6,-20 -6,-44 0,-38 -5,-48 -41,-81 -50,-45 -95,-65 -149,-65 -45,0 -52,-15 -15,-32 38,-17 92,4 179,71 81,63 119,79 142,60 37,-31 2,-71 -58,-67 -25,2 -32,-1 -29,-12 19,-71 17,-76 -93,-198 -31,-34 -56,-68 -56,-73 0,-30 144,83 205,161 42,53 55,59 75,35 18,-22 30,-18 30,8 0,12 14,48 30,79 17,32 53,125 80,208 27,82 74,203 104,267 50,110 86,209 86,239 0,23 -33,32 -165,43 -158,14 -222,30 -289,73 -90,57 -140,78 -206,87 -52,7 -328,108 -350,128 -2,2 6,6 18,10 26,6 27,7 5,40 l -17,26 37,-6 c 21,-3 101,-31 179,-63 204,-82 498,-152 674,-161 88,-4 133,-2 138,5 8,13 -21,19 -129,27 -109,9 -304,48 -411,84 -49,16 -105,32 -124,36 -19,4 -53,18 -76,31 -22,13 -46,24 -53,24 -6,0 -52,16 -101,35 -107,42 -130,43 -196,10 z m 4512,-54 c -31,-35 -81,-231 -59,-231 10,0 87,239 80,246 -2,2 -12,-5 -21,-15 z m -1409,-87 c -28,-28 23,-145 88,-202 49,-43 140,-95 157,-90 6,2 -26,44 -71,94 -45,49 -97,113 -114,143 -32,54 -47,68 -60,55 z m -1436,-41 c 15,-18 110,-65 118,-58 14,14 -80,74 -118,75 -11,0 -11,-3 0,-17 z m 2657,-61 c -24,-26 -53,-60 -62,-75 -27,-40 -34,-33 -23,23 11,55 5,72 -17,49 -24,-24 -46,-107 -46,-169 0,-48 4,-61 19,-70 23,-12 51,10 51,39 0,21 30,60 36,46 2,-5 9,-17 14,-25 15,-22 28,2 36,68 3,30 17,75 30,100 40,79 27,84 -38,14 z m -4758,-44 c 0,-34 53,-138 88,-171 29,-28 114,-61 126,-50 12,13 5,22 -43,52 -32,21 -64,54 -91,95 -22,35 -50,72 -60,81 -19,18 -20,17 -20,-7 z m 3795,-8 c -12,-38 7,-83 54,-130 51,-51 134,-91 153,-72 7,7 2,15 -19,26 -44,22 -119,98 -142,144 -25,50 -38,58 -46,32 z m -1645,1 c 0,-11 70,-71 82,-71 15,0 8,47 -10,63 -20,18 -72,23 -72,8 z m 1896,-73 c -10,-40 -7,-56 19,-87 25,-29 90,-59 102,-47 3,3 -12,25 -33,48 -22,24 -46,58 -53,76 -16,38 -26,41 -35,10 z m 329,12 c -4,-7 -13,-31 -20,-54 -18,-60 -45,-60 -106,0 l -49,48 v -41 c 0,-63 16,-75 128,-92 73,-11 87,1 78,64 -11,67 -21,92 -31,75 z m 115,-32 c -24,-40 -25,-79 -4,-141 25,-74 44,-57 44,39 0,30 7,68 15,85 29,56 -22,71 -55,17 z m -4072,-93 c -16,-14 -51,-28 -85,-35 -112,-21 -127,-26 -131,-38 -2,-8 10,-12 42,-12 35,0 48,-4 56,-20 9,-16 15,-18 30,-10 39,21 140,111 140,125 0,22 -21,18 -52,-10 z m 111,-15 c -52,-39 -97,-95 -85,-107 5,-5 34,18 150,119 28,25 29,27 10,28 -12,0 -46,-18 -75,-40 z m 143,10 c -42,-30 -53,-50 -29,-50 6,0 39,18 72,40 58,38 59,40 29,40 -19,0 -48,-12 -72,-30 z m 204,4 c -49,-18 -106,-61 -106,-79 0,-11 15,-8 63,14 34,16 75,34 90,40 29,11 32,34 6,38 -8,1 -32,-5 -53,-13 z m 124,-22 c -19,-9 -35,-21 -35,-27 0,-16 50,-28 88,-21 45,8 52,41 11,56 -31,12 -23,13 -64,-8 z m 4890,-48 c -6,-14 -10,-30 -10,-35 0,-14 -12,-11 -26,9 -12,15 -13,13 -14,-19 0,-23 9,-49 24,-70 14,-19 50,-77 81,-130 55,-95 89,-138 101,-126 9,8 -12,91 -58,232 -54,163 -77,196 -98,139 z m -4696,-10 c -43,-15 -103,-69 -90,-81 3,-4 31,5 60,20 29,15 60,27 69,27 26,0 20,-36 -8,-54 -30,-20 -32,-36 -6,-36 19,0 62,47 74,82 14,41 -38,63 -99,42 z m -122,-206 c 5,-15 58,-24 58,-10 0,11 -24,22 -47,22 -8,0 -13,-6 -11,-12 z m 1236,-98 c -9,-19 -19,-51 -23,-70 -7,-30 -6,-33 7,-22 19,15 41,83 36,108 -4,15 -8,12 -20,-16 z m 3546,-5 c -4,-15 -3,-66 1,-114 4,-47 8,-107 8,-133 0,-27 4,-48 8,-48 4,0 20,-11 35,-25 18,-17 39,-25 63,-25 51,0 70,-14 42,-30 -38,-20 -115,-40 -155,-40 h -39 l 7,85 c 5,58 4,85 -4,85 -18,0 -49,-61 -64,-127 -8,-37 -29,-86 -50,-117 -20,-30 -52,-95 -71,-144 -34,-88 -64,-226 -52,-238 3,-4 18,8 32,25 27,31 27,31 125,31 161,0 196,16 149,67 -55,60 -99,83 -157,83 h -54 l 7,38 c 3,20 14,51 24,67 15,25 23,29 49,27 22,-2 34,2 38,13 10,25 83,61 164,80 94,22 170,53 170,71 0,15 -45,50 -107,84 -24,13 -45,31 -47,39 -3,9 -10,68 -16,131 -6,63 -15,119 -19,123 -4,4 -24,10 -44,14 -33,5 -37,3 -43,-22 z m -56,-725 c 23,-17 42,-35 42,-40 0,-17 -83,-11 -127,10 -24,10 -43,21 -43,24 0,8 53,35 71,36 9,0 35,-14 57,-30 z m -3453,696 c -17,-12 -15,-15 35,-40 38,-19 70,-27 116,-28 35,-1 66,1 70,5 11,11 -24,33 -80,50 -84,25 -120,28 -141,13 z m -776,-133 c -104,-97 -139,-161 -100,-183 17,-9 34,-5 92,20 66,30 72,30 95,15 30,-20 30,-36 -1,-119 -33,-87 -33,-124 -1,-132 54,-13 136,62 136,124 l -1,37 -24,-46 c -25,-48 -68,-85 -86,-73 -16,9 -3,80 23,125 15,27 19,45 13,66 -11,39 -11,114 0,137 7,17 5,18 -16,12 -62,-19 -70,-13 -53,42 11,37 -22,27 -77,-25 z m 27,-57 c 8,-22 -14,-56 -36,-56 -20,0 -26,23 -14,54 8,20 43,21 50,2 z m 949,85 c -3,-5 -1,-12 4,-15 8,-5 132,-25 159,-26 22,0 12,30 -14,40 -32,13 -141,13 -149,1 z m -325,-30 c -13,-24 -13,-138 -1,-146 12,-7 18,14 26,98 7,68 -3,88 -25,48 z m -2271,-39 c 13,-24 88,-92 101,-92 20,0 9,21 -31,65 -42,46 -90,64 -70,27 z m 2697,-30 c -3,-5 10,-22 28,-36 19,-14 38,-36 42,-48 22,-73 47,-128 57,-128 7,0 17,10 22,23 13,28 102,73 177,89 54,11 58,11 96,-15 86,-57 127,-41 44,17 -58,41 -116,44 -217,12 -111,-36 -122,-35 -135,12 -5,22 -18,46 -28,55 -22,21 -77,33 -86,19 z m -2526,-40 c 0,-23 79,-114 92,-106 16,10 8,29 -31,72 -36,39 -61,53 -61,34 z m 2020,-34 c -21,-47 -26,-123 -9,-133 15,-10 17,-6 28,60 5,33 12,72 16,88 11,43 -13,33 -35,-15 z m -360,3 c 0,-39 9,-61 26,-61 17,0 19,42 4,71 -16,28 -30,23 -30,-10 z m -1468,-42 c 12,-38 144,-58 197,-30 39,21 10,32 -99,38 -85,5 -102,4 -98,-8 z m 1015,-15 c -9,-9 4,-35 14,-28 5,3 9,12 9,20 0,14 -12,19 -23,8 z m 695,-49 c -22,-27 -30,-85 -13,-85 12,0 44,85 39,101 -2,7 -13,1 -26,-16 z m -546,-30 c -3,-9 -11,-83 -18,-163 -13,-164 -17,-1081 -5,-1124 6,-25 12,-28 47,-28 24,0 78,15 130,37 l 90,36 42,-19 c 23,-10 71,-40 107,-66 36,-27 71,-48 77,-48 42,0 49,96 12,168 -47,92 -134,105 -227,35 -76,-58 -192,-116 -205,-103 -7,7 -14,138 -19,373 -12,564 -12,598 2,672 17,89 11,209 -10,231 -15,14 -17,14 -23,-1 z m 408,4 c -17,-21 -27,-59 -15,-59 14,0 33,37 29,57 -3,14 -5,14 -14,2 z m 1299,1 c -28,-12 -29,-31 -3,-55 24,-22 25,-42 3,-67 -16,-18 -17,-18 -39,3 -20,19 -24,20 -30,6 -8,-22 13,-57 36,-57 11,0 42,9 70,20 35,14 71,19 114,18 145,-4 182,66 59,112 -64,25 -176,35 -210,20 z m 186,-54 c 72,-23 30,-53 -56,-40 -47,7 -89,37 -77,55 6,11 78,3 133,-15 z M 3625,3381 c -3,-6 14,-23 40,-39 98,-58 109,-67 117,-99 5,-19 20,-40 36,-50 15,-9 28,-18 30,-19 2,-1 -2,-11 -9,-22 -10,-16 -8,-26 11,-61 26,-44 67,-78 80,-64 5,4 -1,30 -12,57 -20,46 -21,49 -4,61 9,7 38,16 64,20 65,9 83,15 77,26 -4,5 -34,9 -68,9 l -62,1 28,24 c 15,13 27,26 27,28 0,1 -26,0 -57,-3 -67,-8 -80,-5 -88,20 -17,54 -189,144 -210,111 z m 3863,-180 c -57,-56 -132,-129 -168,-164 -41,-39 -80,-90 -102,-133 l -37,-69 -1,70 -1,70 -37,-40 c -20,-23 -55,-63 -77,-89 l -40,-49 -32,27 c -17,14 -35,26 -40,26 -12,0 -203,-195 -228,-233 -10,-15 -15,-31 -11,-34 8,-8 131,112 173,168 35,48 47,53 84,34 33,-18 38,-35 9,-35 -11,0 -38,-16 -60,-37 -71,-63 -82,-111 -13,-54 21,17 47,31 58,31 18,0 85,-30 175,-80 19,-11 47,-22 61,-25 36,-7 117,-81 177,-163 62,-83 166,-257 202,-337 56,-123 93,-340 94,-545 1,-141 -1,-159 -21,-200 -36,-72 -98,-135 -181,-185 l -77,-47 34,36 c 19,20 40,36 46,36 16,0 70,58 62,66 -12,13 -121,-61 -186,-127 -66,-66 -111,-89 -140,-70 -21,14 9,51 98,119 114,88 135,121 52,79 -54,-27 -165,-128 -197,-179 -26,-41 -55,-48 -108,-28 -32,12 -33,27 -4,57 40,43 10,36 -67,-16 -42,-28 -86,-51 -98,-51 -18,0 -13,9 33,53 30,29 78,71 105,94 28,23 47,44 44,48 -6,5 -117,-66 -241,-157 -46,-34 -67,-42 -112,-46 -37,-3 -56,-1 -56,6 0,6 36,41 80,78 44,36 80,70 80,75 0,31 -83,-20 -189,-114 -40,-37 -79,-67 -87,-67 -31,0 -23,25 21,66 27,24 45,47 42,51 -4,3 -43,-8 -88,-26 -52,-21 -94,-31 -117,-29 l -36,3 48,54 c 26,29 45,55 42,58 -3,3 -27,-10 -53,-29 -97,-69 -122,-80 -199,-89 -85,-9 -120,-26 -152,-75 -17,-26 -29,-34 -52,-34 -28,0 -30,3 -30,36 0,20 18,90 40,155 40,119 49,162 31,143 -6,-5 -32,-71 -60,-146 -90,-245 -99,-251 -157,-89 l -23,66 6,-100 6,-100 -67,-28 c -36,-15 -74,-27 -84,-27 -9,0 -27,16 -40,35 -12,19 -27,35 -32,35 -6,0 -34,-48 -63,-108 l -52,-107 -64,-8 c -67,-8 -112,-26 -148,-60 -42,-38 -25,-62 22,-31 23,15 25,15 25,-1 0,-56 -45,-79 -190,-95 -287,-30 -269,-26 -353,-76 -48,-27 -99,-49 -129,-53 -42,-7 -58,-17 -104,-62 -32,-32 -70,-85 -95,-131 -22,-43 -42,-78 -45,-78 -11,0 -44,87 -44,117 0,17 -5,44 -11,60 l -11,28 -19,-23 c -22,-28 -49,-113 -49,-156 1,-54 35,-115 74,-131 78,-33 108,-15 126,72 7,32 18,77 26,100 19,52 103,133 138,133 18,0 24,-4 20,-14 -3,-8 2,-16 13,-20 32,-9 290,-19 319,-12 40,10 15,23 -60,31 -158,16 -171,28 -42,40 39,3 80,9 91,12 l 20,6 -20,8 c -11,4 -43,8 -72,8 -28,1 -54,5 -57,10 -4,5 13,19 37,30 36,17 74,22 237,31 280,14 369,21 375,30 6,9 -53,19 -115,21 h -45 l 100,50 c 55,27 138,61 184,75 89,28 94,44 14,44 -49,0 -54,12 -17,36 18,12 48,17 101,18 63,0 77,-3 89,-19 13,-17 18,-18 57,-7 23,7 63,18 90,25 26,6 47,15 47,18 0,8 -66,15 -210,24 -52,4 -103,9 -113,12 -17,4 -17,6 -2,23 9,10 39,28 67,40 53,23 67,18 68,-22 0,-10 2,-18 5,-18 2,0 49,20 103,44 159,70 243,92 297,78 41,-11 38,-23 -10,-40 -78,-27 -115,-45 -132,-65 -17,-19 -17,-19 2,-14 25,8 420,50 725,77 129,12 239,26 245,31 5,6 4,9 -5,10 -8,0 35,11 97,24 72,14 139,36 185,59 40,20 82,36 93,36 64,0 168,82 243,192 88,129 109,207 118,453 3,99 8,182 10,184 9,10 51,-40 109,-130 64,-98 104,-139 135,-139 10,0 41,-15 69,-34 28,-19 51,-30 51,-24 0,14 -123,188 -134,188 -4,0 -5,-21 -1,-47 l 6,-48 -26,26 c -14,14 -45,63 -69,110 -23,46 -69,127 -101,179 -71,115 -265,492 -265,514 0,9 -11,21 -24,25 -24,10 -36,30 -36,62 0,10 -4,20 -10,20 -5,1 -14,3 -20,4 -5,1 -14,3 -20,4 -18,2 -61,101 -63,144 -1,23 2,61 7,85 7,38 6,42 -12,42 -12,0 -23,9 -27,21 -4,11 -12,18 -18,16 -9,-3 -11,-35 -8,-110 3,-87 1,-107 -11,-107 -22,0 -55,27 -77,64 -25,39 -26,55 -7,81 12,16 16,17 30,6 31,-26 45,-7 39,56 -5,50 -1,67 21,110 14,28 30,54 35,57 5,4 13,-15 17,-41 4,-27 17,-68 29,-93 13,-25 28,-64 34,-87 6,-22 18,-46 26,-53 13,-11 15,-5 16,46 1,68 19,146 35,151 6,2 27,-18 48,-44 42,-53 144,-143 163,-143 25,0 12,21 -63,100 l -77,80 6,99 c 6,99 2,141 -14,141 -15,0 -54,-70 -90,-160 -19,-48 -35,-77 -37,-67 -6,32 28,120 68,177 59,82 93,140 87,147 -3,3 -52,-40 -109,-96 z M 5870,865 c -7,-8 -16,-12 -21,-9 -13,8 -1,24 18,24 13,0 13,-3 3,-15 z M 5412,638 c -24,-22 -46,-37 -50,-33 -4,4 13,25 37,46 57,51 69,40 13,-13 z m -377,2633 c 3,-5 22,-15 43,-22 53,-17 112,-48 112,-59 0,-5 -28,4 -62,20 -68,32 -102,37 -143,18 -33,-15 -32,-36 3,-43 61,-12 100,-24 150,-46 l 54,-24 19,24 c 24,29 24,73 1,94 -29,27 -89,47 -137,47 -26,0 -44,-4 -40,-9 z m -282,-154 c -24,-28 -50,-74 -59,-100 -19,-56 -28,-61 -140,-76 -150,-19 -181,-20 -200,-6 -17,12 -16,16 26,54 43,40 44,42 26,56 -25,19 -107,19 -152,0 -19,-8 -54,-30 -76,-50 -47,-40 -53,-41 -96,-19 -36,17 -113,15 -120,-3 -2,-9 10,-13 44,-13 37,0 45,-3 36,-12 -21,-21 -13,-37 22,-44 55,-10 92,3 115,41 24,41 91,77 134,73 l 32,-3 -47,-33 c -27,-18 -48,-36 -48,-40 0,-4 23,-20 51,-36 48,-27 56,-28 128,-22 102,9 216,33 273,58 l 46,20 86,-88 c 105,-109 111,-107 110,34 0,109 -14,164 -53,205 -25,27 -71,57 -88,57 -4,0 -27,-24 -50,-53 z m 116,-42 c 51,-59 38,-87 -18,-39 l -31,26 -31,-26 c -27,-23 -69,-35 -69,-20 0,26 77,94 106,94 7,0 26,-16 43,-35 z m -3414,71 c -67,-15 -120,-36 -150,-59 -37,-28 -7,-29 62,-1 88,35 209,40 260,9 36,-21 48,-17 38,14 -12,38 -119,57 -210,37 z m 2558,-37 c -23,-6 -47,-16 -53,-24 -11,-13 -7,-15 23,-15 47,0 137,19 137,30 0,20 -40,23 -107,9 z M 1290,2954 c -58,-55 -80,-90 -80,-132 0,-27 15,-52 32,-52 4,0 8,25 8,56 0,53 2,58 52,110 28,30 48,57 45,60 -3,3 -29,-16 -57,-42 z m 305,-13 c -26,-11 -60,-49 -52,-58 8,-8 87,44 87,57 0,12 -8,12 -35,1 z m 2529,-82 c -8,-14 13,-29 41,-29 11,0 35,-9 53,-20 35,-22 67,-26 77,-10 11,17 91,12 116,-8 l 22,-19 -61,-6 c -101,-11 -202,-58 -202,-94 0,-18 9,-17 53,7 35,19 96,30 240,45 65,7 70,18 31,64 -38,46 -53,51 -192,67 -154,17 -169,17 -178,3 z m -2449,-26 c -41,-21 -75,-53 -75,-70 0,-16 75,21 125,62 l 30,24 h -25 c -14,0 -38,-7 -55,-16 z m -358,-39 c -21,-46 -20,-99 3,-99 18,0 27,46 20,100 l -5,40 z m 6210,30 c -14,-15 -7,-139 9,-163 26,-36 34,-12 23,69 -11,78 -20,105 -32,94 z m -5617,-20 c -11,-12 -11,-18 2,-30 14,-14 17,-14 32,1 9,9 16,23 16,31 0,19 -34,18 -50,-2 z m -113,-26 c -38,-31 -65,-68 -49,-68 16,0 102,73 102,86 0,20 -11,17 -53,-18 z m 4798,-79 c -81,-79 -112,-119 -90,-119 14,0 62,30 80,50 11,13 43,40 71,61 38,28 53,46 56,68 3,22 0,31 -9,31 -8,0 -56,-41 -108,-91 z m -2699,63 c -8,-13 11,-27 57,-42 48,-15 72,0 36,23 -31,20 -86,31 -93,19 z m 2561,-37 c -135,-65 -232,-174 -209,-236 8,-20 12,-17 46,39 39,64 63,81 52,37 -3,-14 -9,-36 -12,-50 -11,-47 20,-27 51,32 19,37 31,51 33,40 5,-23 14,-21 39,6 53,59 110,162 95,170 -4,3 -47,-14 -95,-38 z m 1203,35 c 0,-16 68,-87 121,-126 47,-34 104,-50 104,-28 0,13 -198,164 -214,164 -6,0 -11,-4 -11,-10 z m -4707,-67 c -26,-5 -31,-28 -7,-37 9,-3 33,-6 53,-6 h 38 l 6,-117 c 6,-116 22,-203 37,-203 13,0 23,101 16,162 -3,29 -8,88 -12,131 l -7,77 -51,-1 c -28,-1 -61,-4 -73,-6 z m 3301,-6 c -12,-6 -41,-25 -64,-42 -30,-20 -45,-26 -48,-17 -6,20 -66,14 -115,-13 -26,-13 -53,-22 -61,-19 -18,7 -72,-57 -111,-132 -30,-56 -78,-104 -92,-91 -4,4 -1,13 5,19 17,17 15,28 -4,28 -26,0 -10,22 50,70 71,56 116,120 85,120 -9,0 -153,-110 -256,-195 -20,-16 -26,-33 -30,-84 -5,-49 -10,-65 -23,-68 -40,-11 -53,-114 -25,-194 12,-34 13,-49 4,-71 -9,-22 -8,-37 5,-74 22,-64 20,-83 -9,-126 -29,-43 -31,-69 -9,-104 16,-23 16,-27 0,-62 -20,-43 -21,-56 -11,-140 5,-41 3,-94 -5,-149 -12,-73 -12,-91 1,-127 9,-27 20,-41 31,-40 15,1 15,-2 2,-37 -15,-46 -10,-69 17,-69 15,0 19,7 19,31 0,25 14,46 73,106 l 72,75 -58,-32 c -53,-30 -60,-31 -74,-17 -28,28 -8,63 70,121 80,59 124,103 114,112 -6,6 -64,-33 -160,-108 -27,-21 -53,-38 -58,-38 -18,0 -8,48 16,74 13,14 29,43 34,64 11,41 76,109 152,160 25,17 51,37 58,46 43,52 -101,-29 -188,-105 -24,-21 -47,-36 -51,-34 -13,8 -32,74 -27,89 4,10 18,12 50,9 54,-6 64,6 35,42 -19,25 -20,28 -5,37 21,11 110,87 119,102 14,20 8,27 -11,16 -34,-18 -52,-11 -67,26 -9,20 -25,50 -37,65 l -21,29 22,23 c 12,13 22,29 22,36 0,7 27,41 60,75 33,35 60,66 60,70 0,5 -16,-2 -37,-14 -36,-21 -36,-21 -55,-2 -19,19 -19,20 24,54 23,18 65,51 91,72 26,21 46,40 44,43 -3,2 -28,-7 -56,-21 -55,-28 -101,-34 -101,-13 0,21 30,44 100,76 68,31 112,75 144,143 15,32 103,104 114,93 2,-2 -7,-21 -20,-43 -27,-47 -18,-65 16,-33 l 23,22 6,-22 c 6,-21 7,-21 47,11 49,39 155,157 155,173 0,17 -27,19 -51,4 z m -578,-468 c 10,-17 -13,-36 -27,-22 -12,12 -4,33 11,33 5,0 12,-5 16,-11 z m 13,-143 c 9,-10 9,-16 1,-21 -16,-10 -40,2 -40,20 0,19 24,20 39,1 z m -29,-276 c 26,-26 26,-57 0,-65 -30,-9 -40,2 -40,46 0,44 10,49 40,19 z m -1710,862 c 0,-12 14,-22 45,-31 25,-7 48,-11 51,-8 3,2 -9,16 -26,31 -37,30 -70,34 -70,8 z m -2173,-36 c -60,-16 -84,-36 -43,-36 37,0 169,30 181,41 14,13 -82,10 -138,-5 z m 428,4 c -3,-5 -1,-10 4,-10 6,0 11,5 11,10 0,6 -2,10 -4,10 -3,0 -8,-4 -11,-10 z m -855,-14 C 1235,2573 1095,2475 962,2342 822,2204 694,2031 719,2016 c 5,-3 24,18 44,47 19,28 76,97 126,152 50,55 91,106 91,113 0,6 6,12 13,12 16,0 164,72 192,93 39,30 7,27 -57,-6 -36,-18 -64,-28 -61,-22 12,29 207,147 313,190 24,9 31,27 13,32 -4,1 -24,-4 -43,-11 z m 6383,-2 c -15,-41 230,-211 291,-202 36,5 27,23 -31,58 -32,19 -96,59 -143,91 -113,75 -109,73 -117,53 z m -5218,-3 c -6,-11 9,-23 19,-14 9,9 7,23 -3,23 -6,0 -12,-4 -16,-9 z m -963,-47 c 8,-43 98,-76 133,-50 l 20,15 -20,6 c -11,3 -38,15 -60,26 -50,24 -78,25 -73,3 z m 2553,6 c -3,-5 -1,-18 5,-29 14,-28 14,-29 -28,-50 l -39,-20 -31,45 c -49,69 -90,75 -58,8 13,-29 14,-39 4,-51 -10,-12 -9,-18 7,-29 38,-28 94,-39 139,-26 69,18 149,51 176,71 24,19 24,20 6,40 -34,37 -165,67 -181,41 z m 1544,-32 c -31,-42 -79,-139 -79,-158 0,-28 25,0 79,90 34,56 61,103 61,105 0,3 -7,5 -15,5 -8,0 -29,-19 -46,-42 z m -3409,2 c 0,-5 7,-10 15,-10 8,0 15,5 15,10 0,6 -7,10 -15,10 -8,0 -15,-4 -15,-10 z m -145,-20 c -8,-13 -1,-24 14,-19 6,3 7,10 2,18 -6,10 -10,10 -16,1 z m -275,-41 c 0,-24 -13,-44 -61,-94 -67,-70 -79,-100 -98,-250 -30,-223 -5,-372 29,-176 6,37 27,101 47,144 33,74 37,105 11,79 -7,-7 -18,-12 -26,-12 -20,0 -12,82 13,133 28,60 41,62 137,13 87,-43 252,-96 301,-96 35,0 83,24 91,45 7,19 -1,22 -74,28 -108,10 -251,83 -279,142 -34,74 -91,102 -91,44 z m 740,21 c 0,-5 5,-10 10,-10 6,0 10,5 10,10 0,6 -4,10 -10,10 -5,0 -10,-4 -10,-10 z m -1034,-35 c -9,-13 -23,-50 -32,-82 -19,-69 -31,-273 -17,-273 14,0 29,62 49,189 9,57 22,124 29,147 11,36 11,44 0,44 -7,0 -20,-11 -29,-25 z m 1069,5 c 4,-6 11,-8 16,-5 14,9 11,15 -7,15 -8,0 -12,-5 -9,-10 z m 315,-26 c -13,-37 -3,-63 19,-50 13,9 15,86 2,86 -5,0 -15,-16 -21,-36 z m -665,-44 c -24,-25 -26,-30 -12,-36 22,-8 87,14 94,33 6,16 -12,33 -38,33 -8,0 -28,-13 -44,-30 z m 561,-29 c -40,-42 -118,-81 -174,-88 -27,-3 -79,0 -116,6 -76,13 -95,8 -71,-19 18,-20 87,-40 139,-40 75,0 232,85 262,141 20,39 -2,39 -40,0 z m 5038,7 c -9,-14 88,-102 140,-127 64,-29 116,-36 141,-17 19,15 18,16 -25,32 -25,10 -91,41 -147,70 -62,32 -105,48 -109,42 z m -794,-18 c 0,-5 5,-10 10,-10 6,0 10,5 10,10 0,6 -4,10 -10,10 -5,0 -10,-4 -10,-10 z m -3914,-15 c -10,-26 12,-83 35,-90 11,-4 23,-4 26,-1 10,10 -7,55 -30,82 -21,25 -24,25 -31,9 z m 121,-17 c -2,-7 4,-34 14,-60 10,-26 24,-89 30,-140 20,-160 42,-186 144,-170 l 54,9 -21,-41 c -28,-55 -58,-144 -58,-173 0,-40 17,-25 35,30 9,28 27,68 40,88 l 23,36 182,7 c 174,7 230,15 230,35 0,12 -51,21 -116,21 -80,0 -148,18 -195,52 -41,29 -43,30 -97,19 -87,-17 -99,-15 -118,21 -9,18 -18,55 -20,82 -2,47 -12,69 -69,159 -22,34 -50,46 -58,25 z m -1926,-89 c -23,-34 -41,-67 -41,-74 0,-6 -28,-50 -61,-96 -67,-91 -123,-201 -134,-263 -11,-54 6,-41 51,42 94,172 124,210 124,163 0,-11 4,-22 9,-25 10,-7 30,43 56,139 9,33 25,75 35,95 49,98 23,112 -39,19 z m -322,2 C 974,2215 903,2149 851,2095 705,1941 645,1834 683,1792 c 8,-9 22,-34 30,-54 15,-36 70,-77 81,-59 3,5 -3,20 -14,34 -11,14 -20,32 -20,40 0,21 68,122 148,217 39,46 69,87 66,89 -2,2 -58,-48 -123,-112 -106,-104 -151,-136 -151,-108 0,24 97,148 204,260 157,164 181,191 174,191 -3,0 -34,-22 -69,-49 z m 6811,-29 c 0,-13 23,-32 39,-32 11,0 10,4 -4,20 -19,21 -35,26 -35,12 z m 160,-35 c 0,-21 64,-91 103,-112 34,-18 37,-18 101,-1 36,10 66,22 66,26 0,11 -38,20 -85,20 -47,0 -112,28 -139,59 -21,24 -46,28 -46,8 z m -4855,-50 c -33,-34 -55,-65 -55,-79 v -21 l 26,24 c 38,35 97,119 90,126 -3,4 -31,-19 -61,-50 z m 505,43 c 0,-5 7,-10 16,-10 8,0 12,5 9,10 -3,6 -10,10 -16,10 -5,0 -9,-4 -9,-10 z m 3630,-9 c 0,-5 6,-14 14,-20 16,-13 32,2 21,19 -8,12 -35,13 -35,1 z m -3032,-13 c 9,-9 15,-9 24,0 9,9 7,12 -12,12 -19,0 -21,-3 -12,-12 z m -1008,-40 c -32,-22 -97,-125 -85,-136 7,-8 69,54 101,99 35,50 28,66 -16,37 z m 1393,-18 c -71,-129 -150,-180 -277,-180 -115,0 -245,51 -346,135 -51,42 -105,68 -123,58 -11,-7 11,-41 56,-87 23,-24 58,-62 77,-85 30,-36 49,-47 125,-73 74,-25 99,-30 150,-25 79,7 207,50 260,88 57,41 117,121 119,160 2,43 -20,48 -41,9 z m 2337,-56 c 0,-9 7,-14 17,-12 25,5 28,28 4,28 -12,0 -21,-6 -21,-16 z m 1230,-22 c 0,-38 155,-84 175,-53 8,14 -8,21 -89,42 -82,21 -86,22 -86,11 z m -3850,-32 c 0,-5 5,-10 10,-10 6,0 10,5 10,10 0,6 -4,10 -10,10 -5,0 -10,-4 -10,-10 z m -1101,-58 c -71,-67 -110,-122 -86,-122 15,0 114,101 144,146 30,46 5,35 -58,-24 z m 5611,34 c -30,-13 -111,-51 -179,-85 -68,-33 -132,-61 -142,-61 -25,0 -24,-6 7,-43 32,-38 21,-44 -36,-18 -93,42 -65,-9 36,-65 34,-19 68,-41 74,-49 23,-28 -61,-18 -128,15 -62,32 -132,98 -132,126 0,9 -7,14 -17,12 -16,-3 -18,-13 -15,-76 2,-39 0,-72 -5,-72 -5,0 -19,7 -31,16 -13,9 -26,14 -29,11 -3,-4 9,-36 26,-73 17,-37 29,-69 27,-72 -3,-2 -18,5 -34,17 -59,42 -65,23 -28,-87 56,-164 139,-280 255,-357 36,-24 108,-81 159,-126 51,-45 95,-79 97,-77 2,2 -25,37 -60,78 -36,41 -65,81 -65,88 0,7 29,-3 78,-27 88,-44 142,-61 289,-91 55,-11 168,-42 249,-70 163,-55 188,-60 153,-30 l -24,19 53,1 c 28,0 52,4 52,9 0,9 -33,18 -149,41 -30,6 -80,21 -110,34 -31,13 -65,27 -76,31 -43,15 8,15 111,0 170,-25 260,-30 269,-15 6,9 1,19 -14,29 -22,14 -20,15 54,33 68,16 79,16 104,3 51,-26 298,-53 366,-41 57,11 36,29 -56,48 -46,10 -101,25 -122,35 -40,18 -64,47 -47,58 21,13 248,-63 370,-125 39,-20 73,-30 93,-28 50,5 42,25 -20,47 -32,12 -67,26 -78,31 -19,9 -19,9 3,16 31,9 28,19 -10,32 l -33,10 28,1 c 16,1 53,-11 82,-25 50,-23 66,-25 189,-26 142,0 214,15 121,26 -199,23 -332,61 -367,104 -12,13 -6,14 47,9 33,-4 74,-10 90,-13 l 30,-7 -19,21 c -19,22 -19,22 13,28 17,4 34,10 37,15 2,4 -39,22 -93,38 -54,17 -120,37 -148,46 l -50,15 95,-4 c 56,-2 143,-16 209,-32 110,-26 140,-26 144,1 1,5 -25,13 -58,17 -33,4 -175,31 -315,60 -243,51 -253,53 -200,59 30,4 79,7 108,8 61,1 68,16 15,30 -37,10 -360,71 -375,71 -5,0 -8,4 -8,9 0,11 139,32 230,33 38,1 70,5 70,10 0,15 -44,26 -146,38 -141,16 -211,29 -274,51 -39,14 -83,19 -160,20 -73,0 -98,3 -82,9 30,12 28,28 -4,36 -40,10 -214,-14 -342,-47 -120,-31 -180,-36 -213,-18 -16,8 -18,13 -8,25 14,18 102,44 146,44 43,0 123,20 123,30 0,5 -8,11 -17,13 -12,3 -8,7 14,12 56,13 70,55 19,55 -39,0 -169,-37 -282,-80 -152,-58 -164,-61 -164,-45 0,18 102,90 220,155 52,28 102,58 110,66 24,23 -36,17 -100,-10 z m -80,-322 c 30,-25 71,-54 90,-64 38,-20 107,-86 98,-95 -13,-13 -225,92 -229,114 -1,3 -3,16 -4,29 -1,12 -10,31 -20,42 -35,39 8,21 65,-26 z m -370,0 c 0,-8 -9,-14 -20,-14 -21,0 -24,8 -14,34 5,13 9,14 20,5 8,-6 14,-18 14,-25 z m 1075,-35 c -40,-13 -218,-24 -241,-15 -41,16 15,26 141,25 98,-1 123,-3 100,-10 z m -1002,-24 c 27,-13 154,-155 180,-201 11,-20 0,-34 -27,-34 -32,0 -39,10 -20,31 15,16 13,20 -28,50 -23,17 -68,43 -98,57 -69,31 -90,49 -90,78 0,35 34,43 83,19 z m 724,-21 c 45,-17 49,-34 8,-34 -37,0 -38,-16 -3,-45 25,-21 29,-28 17,-36 -46,-29 -139,-18 -173,20 -18,19 -17,20 10,26 16,4 34,8 39,9 6,2 -17,11 -50,21 l -60,19 65,8 c 36,5 69,13 75,19 13,13 23,12 72,-7 z m -537,-49 c 30,-16 100,-95 100,-114 0,-32 -67,18 -86,66 -9,21 -21,33 -34,33 -20,0 -33,13 -23,24 9,8 10,8 43,-9 z m 980,-16 c 48,-11 96,-27 106,-35 17,-13 7,-14 -93,-12 -72,2 -117,8 -125,16 -16,16 -48,15 -48,-2 0,-8 8,-24 18,-36 15,-19 35,-24 137,-35 66,-8 129,-17 140,-20 59,-20 75,-29 75,-42 0,-12 -10,-14 -52,-8 -82,11 -343,79 -442,116 -100,36 -100,37 22,63 95,20 161,19 262,-5 z m -1292,-71 c 74,-116 96,-159 78,-152 -28,11 -136,173 -136,204 0,24 20,6 58,-52 z m 576,6 c 9,-3 16,-10 16,-15 0,-14 -34,-11 -56,6 -19,14 -19,14 3,15 12,0 28,-3 37,-6 z m -494,-35 c 7,-11 9,-24 5,-27 -7,-7 -35,25 -35,40 0,16 19,8 30,-13 z m 848,-8 c 20,-10 48,-31 62,-46 14,-15 33,-31 42,-36 10,-5 106,-16 214,-24 108,-8 199,-17 203,-20 11,-12 -24,-25 -52,-19 -24,5 -28,2 -33,-25 -6,-30 -7,-30 -35,-16 -15,8 -45,15 -65,15 -31,0 -35,2 -24,14 9,12 5,17 -27,25 -21,5 -74,15 -118,21 -97,13 -168,32 -142,38 28,6 15,24 -36,52 -25,14 -49,29 -53,33 -15,14 28,6 64,-12 z m -154,-60 c 44,-21 115,-49 156,-61 41,-12 87,-28 101,-36 14,-7 56,-18 93,-24 81,-13 200,-60 187,-73 -15,-15 -116,-13 -135,2 -14,12 -20,11 -40,-8 -23,-22 -27,-22 -100,-11 -93,14 -209,45 -245,66 l -26,15 25,-5 c 14,-3 68,-8 120,-11 l 95,-6 -28,25 c -16,15 -32,24 -37,21 -5,-3 -22,0 -37,8 -49,25 -123,39 -138,27 -10,-8 -41,2 -125,41 -123,58 -126,69 -16,69 60,0 80,-5 150,-39 z m -529,-17 c 54,-31 62,-40 70,-86 5,-27 4,-38 -5,-38 -15,0 -160,142 -160,158 0,14 33,3 95,-34 z m 239,20 c 4,-12 2,-12 -14,-4 -11,6 -20,15 -20,20 0,14 28,1 34,-16 z m -99,-14 c 10,-11 15,-20 11,-20 -10,0 -66,30 -66,35 0,13 39,2 55,-15 z m 1252,-76 c 118,-28 133,-35 113,-59 -17,-20 -92,-20 -178,1 -92,23 -108,37 -76,68 20,20 13,21 141,-10 z m -1129,-10 c 70,-24 286,-134 278,-142 -9,-8 -376,150 -376,162 0,11 21,6 98,-20 z m 122,16 c 8,-5 11,-10 5,-10 -5,0 -17,5 -25,10 -8,5 -10,10 -5,10 6,0 17,-5 25,-10 z m -50,-165 c 36,-19 39,-28 5,-15 -36,14 -85,40 -85,45 0,6 41,-10 80,-30 z m 883,-27 c 10,-5 16,-12 14,-15 -10,-9 -84,8 -104,23 -16,14 -14,14 27,8 25,-3 53,-11 63,-16 z m -6767,903 c -23,-25 -46,-104 -36,-121 11,-18 30,-3 30,25 0,14 7,43 16,65 19,47 15,59 -10,31 z m -1279,-9 c -46,-50 -86,-205 -73,-277 12,-62 30,-35 39,56 7,86 10,97 46,187 21,53 17,66 -12,34 z m -737,-66 c -71,-56 -104,-92 -92,-100 6,-3 46,27 89,69 86,82 88,99 3,31 z m 2288,9 c -53,-39 -90,-95 -63,-95 17,0 111,83 126,112 15,29 -10,22 -63,-17 z m 4712,5 c 0,-5 7,-10 15,-10 8,0 15,5 15,10 0,6 -7,10 -15,10 -8,0 -15,-4 -15,-10 z m 505,0 c 3,-5 10,-10 16,-10 5,0 9,5 9,10 0,6 -7,10 -16,10 -8,0 -12,-4 -9,-10 z m -263,-17 c -41,-6 -37,-24 9,-40 36,-13 158,-15 198,-4 33,9 37,27 9,35 -33,8 -177,15 -216,9 z m 836,-80 c 7,-3 16,-2 19,1 4,3 -2,6 -13,5 -11,0 -14,-3 -6,-6 z m 80,0 c 6,-2 18,-2 25,0 6,3 1,5 -13,5 -14,0 -19,-2 -12,-5 z m -5675,-55 c -12,-13 -37,-51 -57,-85 -24,-40 -57,-78 -99,-112 -89,-70 -152,-140 -139,-153 8,-8 35,12 92,65 45,43 86,77 91,77 15,0 10,-43 -9,-71 -9,-14 -34,-46 -54,-71 -63,-75 -46,-94 26,-28 24,22 45,40 48,40 3,0 8,-28 12,-62 3,-34 8,-63 10,-66 11,-11 26,12 26,41 0,18 16,77 35,132 19,55 35,104 35,109 0,6 -16,-6 -36,-25 l -37,-34 7,50 c 3,28 24,85 46,129 22,43 40,80 40,82 0,11 -19,1 -37,-18 z m -1689,-23 c -44,-67 -80,-195 -55,-195 16,0 28,24 52,100 13,41 26,85 30,98 10,30 -7,28 -27,-3 z m -980,-37 c -57,-54 -82,-88 -65,-88 13,0 119,98 132,121 18,35 -11,21 -67,-33 z m 8833,46 c -14,-14 6,-24 48,-24 55,0 82,9 63,21 -15,10 -102,12 -111,3 z m -6384,-69 c -60,-61 -86,-101 -77,-117 5,-8 138,133 154,163 22,40 -15,19 -77,-46 z m 4117,45 c 0,-5 5,-10 11,-10 5,0 7,5 4,10 -3,6 -8,10 -11,10 -2,0 -4,-4 -4,-10 z m -5487,-82 c -6,-7 -19,-38 -31,-68 -16,-45 -24,-54 -41,-52 -31,5 -45,-39 -27,-81 13,-32 62,-84 70,-76 3,2 -1,24 -7,47 -9,33 -9,45 0,50 11,7 56,182 49,189 -2,2 -8,-2 -13,-9 z m 1235,-104 c -5,-4 -8,-30 -7,-58 1,-50 1,-50 10,-17 11,36 8,87 -3,75 z m 3159,-1 c -11,-10 13,-33 34,-33 25,0 24,16 0,30 -23,12 -26,12 -34,3 z m 1209,-62 c -4,-7 -5,-15 -2,-18 9,-9 19,4 14,18 -4,11 -6,11 -12,0 z M 1715,1324 c -45,-25 -53,-26 -92,-15 -73,19 -91,15 -110,-24 -19,-41 -11,-56 17,-30 16,15 30,16 78,11 52,-6 64,-4 122,26 65,33 87,58 53,58 -10,0 -41,-12 -68,-26 z m 1812,-11 c -8,-16 -23,-52 -33,-82 -11,-31 -31,-64 -49,-78 -28,-24 -34,-25 -118,-20 -124,8 -169,-7 -254,-86 -71,-67 -163,-172 -163,-188 0,-23 30,-6 54,32 30,45 46,47 23,2 -23,-43 -54,-68 -157,-123 -115,-62 -155,-99 -174,-159 -18,-58 -29,-111 -23,-111 3,0 32,6 64,14 32,8 114,17 183,21 151,8 172,18 140,70 -24,39 -20,55 46,187 26,54 45,100 42,103 -3,4 -20,-1 -38,-10 -18,-9 -35,-14 -38,-10 -8,8 42,48 103,81 92,50 105,74 38,74 -31,0 -34,2 -23,16 24,28 50,35 167,45 146,11 191,23 202,52 12,32 41,159 41,180 0,26 -18,21 -33,-10 z M 2897,714 c -2,-26 -11,-50 -18,-55 -18,-12 -139,-11 -139,0 0,11 138,98 159,101 2,0 1,-21 -2,-46 z m 3876,584 c 2,-7 12,-13 22,-13 10,0 20,6 23,13 2,7 -6,12 -23,12 -17,0 -25,-5 -22,-12 z m -5378,-94 c -27,-19 -75,-44 -105,-55 -157,-58 -277,-193 -296,-331 -10,-75 16,-73 113,9 l 52,45 111,-4 c 60,-1 110,-1 110,2 1,25 31,227 36,243 7,21 6,21 -22,2 -17,-11 -25,-13 -18,-4 107,137 111,157 19,93 z m -107,-116 c 7,-7 12,-21 12,-33 0,-11 9,-37 20,-58 11,-20 20,-41 20,-47 0,-6 -28,-10 -64,-10 -35,0 -83,-7 -106,-15 -53,-19 -90,-19 -90,-2 0,36 96,137 155,163 38,17 38,17 53,2 z m 5864,115 c -47,-30 -61,-53 -33,-53 23,0 98,65 84,73 -5,3 -29,-6 -51,-20 z m -4667,-27 c -23,-7 -50,-18 -60,-25 -19,-11 -18,-12 5,-7 14,2 55,8 93,11 66,7 83,17 51,29 -22,8 -43,7 -89,-8 z m -790,-60 c -85,-68 -195,-178 -195,-195 0,-31 32,-8 154,110 125,121 149,149 128,149 -4,0 -44,-29 -87,-64 z m 4049,20 c -53,-47 -111,-116 -96,-116 12,0 162,140 162,151 0,17 -15,9 -66,-35 z m -3426,-63 c -14,-16 -28,-35 -31,-44 -6,-20 12,-50 19,-32 3,7 16,28 30,48 39,58 28,77 -18,28 z m 3194,10 c -19,-35 34,-141 58,-117 13,13 -19,125 -37,131 -6,2 -16,-4 -21,-14 z m -3640,-30 c -22,-33 -33,-60 -66,-174 -26,-86 -26,-86 -102,-148 -47,-39 -81,-60 -91,-57 -23,9 -8,52 38,113 52,70 57,83 29,83 -30,0 -78,-53 -112,-127 l -29,-61 21,-42 c 20,-40 21,-43 4,-61 -9,-10 -23,-19 -29,-19 -7,0 -18,-6 -24,-14 -19,-23 28,-28 95,-10 170,44 297,87 209,71 -16,-3 -61,-9 -98,-12 -68,-7 -69,-7 -57,15 23,42 80,97 121,115 l 42,19 46,-25 c 62,-35 75,-73 60,-172 -14,-89 -7,-142 22,-173 33,-35 61,-30 107,20 55,59 68,84 47,92 -9,4 -29,4 -46,0 l -31,-6 4,106 c 4,105 4,106 36,135 35,31 85,39 123,18 19,-10 19,-11 -10,-44 -28,-33 -51,-99 -37,-112 3,-3 26,12 50,35 24,22 68,53 96,67 55,28 56,41 5,47 -27,3 -30,7 -33,45 -4,50 18,96 82,174 44,54 56,79 37,79 -12,0 -113,-110 -148,-162 -27,-40 -33,-44 -98,-55 -62,-12 -75,-18 -118,-60 l -48,-48 -19,23 c -10,12 -21,40 -25,62 -8,46 -19,55 -57,51 -35,-3 -35,10 -2,66 15,26 23,51 19,63 -3,10 1,35 10,55 8,21 15,41 15,46 0,18 -19,8 -38,-18 z m 6593,-23 c -3,-5 -2,-10 4,-10 5,0 13,5 16,10 3,6 2,10 -4,10 -5,0 -13,-4 -16,-10 z m -343,-7 c -23,-2 -40,-8 -37,-14 7,-10 236,-12 286,-2 33,7 33,7 9,14 -26,7 -183,8 -258,2 z m 1980,-25 c 5,-15 28,-18 29,-3 0,6 -7,12 -17,13 -10,3 -15,-1 -12,-10 z m -2759,-5 c 9,-2 23,-2 30,0 6,3 -1,5 -18,5 -16,0 -22,-2 -12,-5 z m 3052,-13 c -4,-6 3,-10 14,-10 25,0 27,6 6,13 -8,4 -17,2 -20,-3 z M 8440,960 c 0,-16 27,-23 55,-16 39,10 29,26 -15,26 -22,0 -40,-5 -40,-10 z m -325,-25 c -48,-10 -54,-13 -30,-16 63,-6 135,5 135,21 0,13 -29,11 -105,-5 z m -982,-2 c -33,-6 -28,-19 8,-27 49,-9 120,-7 164,6 l 40,12 -45,7 c -48,8 -131,9 -167,2 z m 1170,0 c 9,-2 23,-2 30,0 6,3 -1,5 -18,5 -16,0 -22,-2 -12,-5 z m 1257,-3 c 0,-5 5,-10 10,-10 6,0 10,5 10,10 0,6 -4,10 -10,10 -5,0 -10,-4 -10,-10 z M 3394,890 c -88,-45 -153,-92 -136,-98 15,-5 206,95 228,120 29,31 -6,23 -92,-22 z m 6206,31 c 0,-14 27,-21 76,-21 47,0 59,14 22,24 -35,9 -98,7 -98,-3 z M 2401,845 c -41,-45 -52,-83 -32,-114 8,-12 12,-12 25,-2 9,8 16,22 16,34 0,11 14,44 31,73 39,68 19,73 -40,9 z m 4961,35 c -50,-12 -50,-20 1,-20 50,0 77,7 77,21 0,11 -31,10 -78,-1 z m -231,-43 c -19,-7 -37,-18 -39,-26 -6,-19 65,-8 122,19 l 41,18 -45,1 c -25,0 -60,-5 -79,-12 z m 1686,6 c -8,-7 42,-43 61,-43 22,0 13,19 -18,35 -33,17 -34,17 -43,8 z M 3784,789 c -52,-15 -141,-116 -120,-136 3,-3 33,20 67,51 34,31 74,60 90,63 16,3 34,12 40,19 9,11 6,14 -17,13 -16,0 -43,-5 -60,-10 z m 2609,-24 c -92,-37 -184,-87 -203,-110 -21,-25 4,-18 88,24 42,21 106,51 142,66 36,15 72,33 80,41 25,24 -17,16 -107,-21 z m -257,0 c -67,-27 -91,-45 -60,-45 27,0 124,47 124,60 0,13 5,14 -64,-15 z M 2441,729 c -41,-55 -54,-107 -45,-177 18,-157 77,-163 109,-12 4,19 23,68 42,109 19,40 32,76 29,79 -20,19 -116,-133 -116,-184 0,-11 -7,-29 -15,-40 -26,-35 -19,94 10,183 14,42 24,78 21,80 -2,3 -18,-14 -35,-38 z m 2757,-1 c -38,-41 -88,-118 -88,-135 0,-29 28,-10 53,36 15,27 34,54 43,61 22,19 47,70 34,70 -6,0 -25,-15 -42,-32 z m 1357,13 c -67,-24 -128,-56 -144,-75 -21,-25 0,-20 115,25 107,43 148,70 103,68 -13,0 -47,-8 -74,-18 z m -5314,-6 c -76,-17 -222,-64 -236,-76 -12,-12 -20,-13 145,21 80,16 154,30 165,30 35,0 96,21 90,31 -9,13 -88,10 -164,-6 z m 1936,-41 c -74,-38 -104,-80 -91,-129 9,-37 30,-30 68,23 19,26 55,64 80,85 80,66 51,77 -57,21 z m 2823,6 c 0,-5 5,-10 10,-10 6,0 10,5 10,10 0,6 -4,10 -10,10 -5,0 -10,-4 -10,-10 z M 1360,676 c -83,-19 -205,-55 -248,-73 -68,-29 -14,-25 140,11 84,19 175,39 202,43 27,5 51,14 54,21 5,16 -72,15 -148,-2 z m 2980,-3 c -19,-9 -69,-51 -111,-93 -66,-66 -78,-83 -92,-136 -9,-33 -17,-74 -17,-91 0,-28 32,-83 49,-83 4,0 5,27 3,60 -3,39 0,65 8,75 8,9 10,28 6,51 -9,44 14,84 48,84 14,0 47,22 84,56 95,85 103,116 22,77 z M 3247,620 c -14,-16 -42,-58 -63,-92 -46,-75 -49,-129 -14,-237 42,-133 120,-215 135,-144 16,73 99,211 151,252 27,21 38,22 76,6 13,-5 24,8 53,65 20,40 34,74 31,77 -3,3 -19,-6 -36,-21 -37,-30 -39,-31 -67,-11 -11,8 -61,31 -109,51 -49,20 -95,38 -101,41 -7,3 -13,14 -13,24 0,27 -14,24 -43,-11 z m 163,-105 c 17,-9 30,-19 30,-24 0,-17 -127,-111 -151,-111 -17,0 -6,92 15,124 19,30 61,34 106,11 z m -194,-76 -14,-34 -1,36 c -1,19 5,41 12,48 19,19 21,-10 3,-50 z m 2644,191 c 0,-5 5,-10 10,-10 6,0 10,5 10,10 0,6 -4,10 -10,10 -5,0 -10,-4 -10,-10 z M 4568,603 c 7,-3 16,-2 19,1 4,3 -2,6 -13,5 -11,0 -14,-3 -6,-6 z M 1431,524 c -17,-13 -20,-19 -10,-25 17,-10 49,7 49,26 0,19 -10,19 -39,-1 z m 2381,-6 c -14,-14 -16,-38 -2,-38 9,0 30,31 30,44 0,10 -15,7 -28,-6 z M 1314,495 c -19,-14 -19,-14 1,-15 30,0 65,11 65,21 0,14 -44,10 -66,-6 z m 2563,-31 c -43,-19 -89,-34 -102,-34 -56,0 -100,-124 -100,-282 0,-75 4,-101 16,-113 14,-14 20,-12 66,26 28,22 74,70 103,106 54,67 148,137 200,148 66,14 44,45 -32,45 h -47 l -6,48 c -13,98 -9,96 -98,56 z m 21,-93 c 4,-53 -31,-129 -88,-192 l -39,-44 v 55 c 0,30 4,79 8,109 7,47 14,59 47,88 51,43 68,40 72,-16 z m 532,103 c -6,-15 -6,-32 -1,-41 10,-18 18,-8 31,37 11,39 -16,42 -30,4 z m 92,-9 c -15,-31 -15,-55 -2,-55 13,0 30,34 30,59 0,29 -14,26 -28,-4 z m -890,-46 c 3,-30 30,-60 43,-47 9,9 -22,78 -35,78 -7,0 -10,-13 -8,-31 z m -925,11 c 12,-5 34,-5 50,0 24,7 21,8 -22,9 -38,0 -45,-2 -28,-9 z m 2348,-40 c -8,-13 20,-24 41,-16 20,8 9,26 -16,26 -10,0 -22,-5 -25,-10 z m 133,3 c 7,-3 16,-2 19,1 4,3 -2,6 -13,5 -11,0 -14,-3 -6,-6 z M 9006,194 c -10,-47 -15,-88 -12,-91 5,-6 9,7 30,110 7,37 10,67 6,67 -4,0 -15,-39 -24,-86 z m 314,76 c 0,-5 5,-10 10,-10 6,0 10,5 10,10 0,6 -4,10 -10,10 -5,0 -10,-4 -10,-10 z m 546,-76 c -10,-47 -15,-88 -12,-91 5,-6 9,7 30,110 7,37 10,67 6,67 -4,0 -15,-39 -24,-86 z m 80,75 c -3,-8 -10,-41 -16,-74 -6,-33 -14,-68 -16,-77 -3,-10 -1,-18 3,-18 10,0 46,171 38,178 -2,3 -7,-1 -9,-9 z M 8709,241 c -38,-38 -41,-101 -7,-125 29,-20 79,-20 104,0 18,14 18,15 1,10 -53,-17 -69,-17 -92,-2 -69,45 21,166 94,126 12,-6 21,-7 21,-1 0,12 -25,21 -62,21 -19,0 -39,-10 -59,-29 z m 1001,-52 c -28,-45 -49,-83 -47,-85 2,-3 12,7 21,21 14,21 24,25 66,25 43,0 50,-3 50,-19 0,-11 5,-23 10,-26 6,-3 10,-3 10,1 0,20 -44,164 -51,164 -4,0 -30,-37 -59,-81 z m 75,4 7,-33 h -42 c -42,0 -42,0 -28,23 8,12 21,32 29,44 15,25 22,18 34,-34 z m -925,17 c -22,-22 -27,-79 -8,-98 19,-19 66,-14 88,8 22,22 27,79 8,98 -19,19 -66,14 -88,-8 z m 71,0 c 25,-14 25,-54 -1,-80 -23,-23 -33,-24 -61,-10 -25,14 -25,54 1,80 23,23 33,24 61,10 z m 139,0 c -22,-22 -27,-79 -8,-98 19,-19 66,-14 88,8 22,22 27,79 8,98 -19,19 -66,14 -88,-8 z m 71,0 c 25,-14 25,-54 -1,-80 -23,-23 -33,-24 -61,-10 -25,14 -25,54 1,80 23,23 33,24 61,10 z m 75,-6 c -3,-16 -8,-47 -11,-69 -8,-51 10,-26 19,27 5,27 15,42 34,53 18,10 22,14 10,15 -9,0 -20,-5 -24,-11 -5,-8 -9,-8 -14,1 -5,8 -10,3 -14,-16 z m 101,19 c -2,-4 -7,-26 -11,-48 -4,-22 -9,-48 -12,-57 -3,-10 -1,-18 4,-18 4,0 14,28 20,62 11,58 10,81 -1,61 z m 58,-3 c -1,-3 -5,-23 -9,-45 -4,-22 -9,-48 -12,-57 -3,-10 -1,-18 4,-18 5,0 13,20 17,45 7,53 44,87 74,68 17,-11 19,-28 8,-80 -4,-18 -3,-33 2,-33 16,0 24,99 11,115 -12,14 -87,18 -95,5 z m 165,-10 c -22,-22 -27,-79 -8,-98 7,-7 24,-12 38,-12 14,0 31,5 38,12 9,9 12,8 12,-5 0,-9 -12,-24 -26,-34 -21,-13 -32,-15 -55,-6 -16,6 -29,8 -29,3 0,-24 81,-27 102,-2 18,19 50,162 37,162 -5,0 -9,-5 -9,-10 0,-7 -6,-7 -19,0 -30,16 -59,12 -81,-10 z m 71,0 c 29,-16 25,-65 -6,-86 -56,-37 -103,28 -55,76 23,23 33,24 61,10 z m 430,1 c -23,-23 -28,-80 -9,-99 19,-19 88,-13 88,9 0,5 -11,4 -24,-2 -54,-25 -89,38 -46,81 23,23 33,24 62,9 16,-9 19,-8 16,3 -8,22 -64,22 -87,-1 z m 129,-1 c -22,-22 -27,-79 -8,-98 19,-19 66,-14 88,8 22,22 27,79 8,98 -19,19 -66,14 -88,-8 z m 71,0 c 25,-14 25,-54 -1,-80 -23,-23 -33,-24 -61,-10 -25,14 -25,54 1,80 23,23 33,24 61,10 z m 75,-9 c -3,-14 -8,-44 -11,-66 -8,-51 10,-26 19,27 8,41 35,63 66,53 22,-7 24,-21 11,-77 -5,-22 -5,-38 0,-38 5,0 9,6 9,13 0,68 51,125 85,97 15,-13 15,-35 -1,-92 -3,-10 -1,-18 4,-18 6,0 13,23 17,50 9,63 -5,84 -49,76 -17,-4 -35,-6 -41,-6 -101,8 -104,7 -109,-19 z m -356,-91 c 0,-5 5,-10 10,-10 6,0 10,5 10,10 0,6 -4,10 -10,10 -5,0 -10,-4 -10,-10 z"
         id="path4"
         style="display:inline;fill:#ffffff;fill-opacity:1" />
    </g>
  </g>
</svg>
